<!--?xml version="1.0" encoding="iso-8859-1"?-->
<!-- Generator: Adobe Illustrator 24.0.2, SVG Export Plug-In . SVG Version: 6.00 Build 0)  -->
<svg version="1.1" id="_x34_" xmlns="http://www.w3.org/2000/svg" xmlns:xlink="http://www.w3.org/1999/xlink" x="0px" y="0px" viewBox="0 0 379.3 512" style="opacity: 1; width: 256px;" xml:space="preserve">
<style type="text/css">
	.st0{fill:#D2D2D2;}
	.st1{fill:#F0E5CB;}
	.st2{fill:#D21161;}
	.st3{fill:#4F245A;}
	.st4{fill:#363A3D;}
	.st5{opacity:0.5;fill:#5F5F5F;}
	.st6{opacity:0.1;fill:#040000;}
	.st7{opacity:0.2;fill:#FFFFFF;}
	.st8{fill:#171717;}
</style>
<g>
	<path class="st0" d="M379.3,102.1c0-0.1,0-0.2,0-0.2l0-4.6h-0.1c-0.3-10.6-2.3-24.8-16.7-31.8c-18.6-9.1-60.4-16.4-102-20.5
		c-13-10.8-38.3-18.2-67.7-18.7V3.8c0-2.1-1.7-3.8-3.8-3.8c-2.1,0-3.8,1.7-3.8,3.8v22.5c-29,0.7-53.8,8.1-66.6,18.7
		C77.4,49.2,36,56.5,17.6,65.5C3.3,72.4,1.2,86.5,0.9,97.1H0.9l0-11.5l0,1.6l0,0L0.4,282.3l-0.1,39.9v15.3L0,414.9h28.4l1.7,12.4
		l10.9,77.8c0.5,4,3.9,6.9,8,6.9h281.2c4,0,7.4-2.9,8-6.9l10.9-77.8l1.7-12.4h27.6l0.2-77.4v-15.3l0.2-39.8l0.5-175.2h0L379.3,102.1
		z"></path>
	<path class="st1" d="M379.2,97.3c-0.3-10.6-2.3-24.8-16.6-31.8C333.1,51,244.8,41.1,192,41.1h-3.9c-52.8,0-141,9.9-170.6,24.4
		c-14.2,7-16.3,21-16.6,31.6H0.8L0.4,282.3l-0.2,39.8v15.4L0,414.9h144.2v-14.2c0-1.8,1.6-3.4,3.4-3.4h85.9c1.9,0,3.4,1.6,3.4,3.4
		v14.2h141.4l0.2-77.4v-15.4l0.2-39.8l0.5-175.2L379.2,97.3L379.2,97.3z M304.5,271.8c9,0,16.9,4.9,21.1,12.1
		c2.2,3.6,3.4,7.8,3.4,12.4c0,6.8-2.8,13-7.4,17.4c-4.4,4.4-10.5,7-17.1,7c-6.6,0-12.7-2.6-17.1-7c-4.6-4.4-7.4-10.6-7.4-17.4
		c0-4.6,1.2-8.8,3.4-12.4C287.6,276.7,295.6,271.8,304.5,271.8z M74.8,271.8c9,0,16.9,4.9,21.1,12.1c2.2,3.6,3.4,7.8,3.4,12.4
		c0,6.8-2.8,13-7.4,17.4c-4.4,4.4-10.4,7-17.1,7c-6.7,0-12.7-2.6-17.1-7c-4.6-4.4-7.4-10.6-7.4-17.4c0-4.6,1.2-8.8,3.4-12.4
		C58,276.7,65.9,271.8,74.8,271.8z"></path>
	<g>
		<path class="st2" d="M53.7,283.9H5.5l-0.1,29.8h52.3c-4.6-4.4-7.4-10.6-7.4-17.4C50.4,291.7,51.6,287.5,53.7,283.9z"></path>
		<path class="st2" d="M283.4,283.9H96c2.2,3.6,3.4,7.8,3.4,12.4c0,6.8-2.8,13-7.4,17.4h195.4c-4.6-4.4-7.4-10.6-7.4-17.4
			C280,291.7,281.2,287.5,283.4,283.9z"></path>
		<path class="st2" d="M325.6,283.9c2.2,3.6,3.4,7.8,3.4,12.4c0,6.8-2.8,13-7.4,17.4h52.2l0.1-29.8H325.6z"></path>
	</g>
	<rect x="5.3" y="323.7" class="st3" width="368.5" height="15.3"></rect>
	<g>
		<path class="st4" d="M237,400.7c0-1.8-1.5-3.4-3.4-3.4h-85.7c-1.8,0-3.4,1.5-3.4,3.4v14.2H85.6v70.7c0,4.6,3.7,8.2,8.2,8.2h199.3
			c4.6,0,8.2-3.7,8.2-8.2v-70.7H237V400.7z M211,481.3h-50.2v-25H211V481.3z M222.2,472.2h-7.9v-7.9h7.9V472.2z"></path>
		<path class="st4" d="M330.6,90.4c0-4.6-3.5-8.5-8.2-8.8l-62.8-4.4c-1.8-0.2-3.6-0.3-5.4-0.3c-1.6-0.2-3.3-0.3-5-0.3
			c-43.1-2.6-86.4-2.4-129.5,0.6l-62.8,4.4c-4.6,0.3-8.2,4.2-8.2,8.8v26.2h281.9V90.4z"></path>
		<path class="st4" d="M124,211.4v-64.7c0-4.6-3.7-8.4-8.4-8.4H34.1c-4.6,0-8.4,3.8-8.4,8.4v64.7c0,4.6,3.8,8.4,8.4,8.4h81.6
			C120.2,219.8,124,216,124,211.4z"></path>
		<path class="st4" d="M353.7,241.3v-94.6c0-4.6-3.8-8.4-8.4-8.4h-81.5c-4.6,0-8.4,3.8-8.4,8.4v94.6c0,4.6,3.8,8.4,8.4,8.4h81.5
			C349.9,249.7,353.7,245.9,353.7,241.3z"></path>
		<path class="st4" d="M165.8,152.6c-4.6,0-8.4,3.7-8.4,8.4v80.3c0,4.6,3.8,8.4,8.4,8.4h48c4.6,0,8.4-3.8,8.4-8.4v-80.3
			c0-4.6-3.7-8.4-8.4-8.4H165.8z"></path>
		<rect x="21.5" y="371" class="st4" width="100" height="5.6"></rect>
		<rect x="21.5" y="387.2" class="st4" width="100" height="5.6"></rect>
		<rect x="257.8" y="371" class="st4" width="100" height="5.6"></rect>
		<rect x="257.8" y="387.2" class="st4" width="100" height="5.6"></rect>
		<path class="st4" d="M39.1,109.8V98.2c0-2.3-1.9-4.2-4.2-4.2H20.2c-2.3,0-4.2,1.9-4.2,4.2v11.5c0,2.3,1.9,4.2,4.2,4.2h14.6
			C37.2,114,39.1,112.1,39.1,109.8z"></path>
		<path class="st4" d="M359.1,94h-14.6c-2.3,0-4.2,1.9-4.2,4.2v11.5c0,2.3,1.9,4.2,4.2,4.2h14.6c2.3,0,4.2-1.9,4.2-4.2V98.2
			C363.3,95.9,361.4,94,359.1,94z"></path>
		<path class="st4" d="M279.4,296.3c0,13.8,11.3,25.1,25.1,25.1c13.8,0,25.1-11.3,25.1-25.1c0-13.8-11.3-25.1-25.1-25.1
			C290.7,271.2,279.4,282.5,279.4,296.3z M326.2,296.3c0,12-9.7,21.7-21.7,21.7c-12,0-21.7-9.7-21.7-21.7c0-12,9.7-21.7,21.7-21.7
			C316.5,274.6,326.2,284.4,326.2,296.3z"></path>
		<path class="st4" d="M99.9,296.3c0-13.8-11.3-25.1-25.1-25.1s-25.1,11.3-25.1,25.1c0,13.8,11.3,25.1,25.1,25.1
			S99.9,310.2,99.9,296.3z M53.1,296.3c0-12,9.7-21.7,21.7-21.7s21.7,9.7,21.7,21.7c0,12-9.7,21.7-21.7,21.7S53.1,308.3,53.1,296.3z
			"></path>
	</g>
	<g>
		<path class="st5" d="M320.6,296.3c0-8.9-7.2-16.1-16.1-16.1c-8.9,0-16.1,7.2-16.1,16.1c0,8.9,7.2,16.1,16.1,16.1
			C313.4,312.4,320.6,305.2,320.6,296.3z"></path>
		<circle class="st5" cx="74.8" cy="296.3" r="16.1"></circle>
		<polygon class="st5" points="194.6,31.3 184.7,31.3 179.7,37.8 199.6,37.8 		"></polygon>
		<rect x="306.7" y="414.7" class="st5" width="34.1" height="20.2"></rect>
		<rect x="161.2" y="401.3" class="st5" width="22.8" height="22.3"></rect>
		<path class="st5" d="M264.4,415.5h-10v25.1H235v-42.2c-0.6-0.4-1.1-0.6-1.8-0.6H225v32.8h-69.3v-32.8h-6.5c-1.9,0-3.4,1.6-3.4,3.4
			v14.2h-0.1v25.1h-17.7v-25.1h-10v25.1h-8.4v10h160v-10h-5.3V415.5z"></path>
		<rect x="210.1" y="400.6" class="st5" width="4.8" height="23"></rect>
	</g>
	<g>
		<polygon class="st6" points="30.2,427.3 85.6,427.3 85.6,414.9 102.1,414.9 102.1,414.9 28.4,414.9 		"></polygon>
		<polygon class="st6" points="277.2,414.9 277.2,414.9 301.4,414.9 301.4,427.3 349.2,427.3 350.8,414.9 		"></polygon>
		<path class="st6" d="M119.1,44.9c8-0.7,15.9-1.4,23.8-2c10.8-3.4,23.5-5.8,37.4-6.5l3.9-5.2h1.2v-5c-29.1,0.6-54.1,8.1-66.8,18.8
			C118.7,45,118.9,45,119.1,44.9z"></path>
		<path class="st6" d="M192.9,31.3h1.2l3.9,5.1c14.2,0.7,27.3,3,38.3,6.5c7.8,0.6,15.9,1.3,24,2.1h0.4c-13-10.8-38.4-18.2-67.8-18.7
			V31.3z"></path>
	</g>
	<g>
		<path class="st7" d="M50.4,188v31.7h65.2c4.6,0,8.4-3.7,8.4-8.4v-40.8H67.8C58.2,170.6,50.4,178.4,50.4,188z"></path>
		<path class="st7" d="M157.4,241.3c0,4.6,3.8,8.4,8.4,8.4h48c4.6,0,8.4-3.8,8.4-8.4v-70.7h-64.7V241.3z"></path>
		<path class="st7" d="M311.8,170.6h-56.4v70.7c0,4.6,3.8,8.4,8.4,8.4h65.4V188C329.2,178.4,321.4,170.6,311.8,170.6z"></path>
		<path class="st7" d="M67.4,112.1h48.7c3.6,0,6.5-2.9,6.5-6.5V92.4c0-3.6-2.9-6.5-6.5-6.5H67.4c-3.6,0-6.5,2.9-6.5,6.5v13.1
			C60.9,109.2,63.8,112.1,67.4,112.1z"></path>
		<path class="st7" d="M165,112.1h48.7c3.6,0,6.5-2.9,6.5-6.5V86.2c0-3.6-2.9-6.5-6.5-6.5H165c-3.6,0-6.5,2.9-6.5,6.5v19.4
			C158.5,109.2,161.5,112.1,165,112.1z"></path>
		<path class="st7" d="M304.5,317.8v-21.5h20.2c0.1,0.4,0.1,0.8,0.1,1.1C324.8,308.7,315.7,317.8,304.5,317.8z"></path>
		<path class="st7" d="M304.5,274.9v21.5h-20.2c-0.1-0.4-0.1-0.8-0.1-1.1C284.2,284,293.3,274.9,304.5,274.9z"></path>
		<path class="st7" d="M74.8,317.8v-21.5H95c0.1,0.4,0.1,0.8,0.1,1.1C95.1,308.7,86,317.8,74.8,317.8z"></path>
		<path class="st7" d="M74.8,274.9v21.5H54.6c-0.1-0.4-0.1-0.8-0.1-1.1C54.6,284,63.6,274.9,74.8,274.9z"></path>
	</g>
	<g>
		<path class="st8" d="M231.7,133.3h-84c-7.4,0-13.4,6-13.4,13.4v235.6c0,7.4,6,13.4,13.4,13.4h84c7.4,0,13.4-6,13.4-13.4V146.6
			C245.1,139.3,239.1,133.3,231.7,133.3z M235.1,382.2c0,1.9-1.6,3.4-3.4,3.4h-84c-1.9,0-3.4-1.6-3.4-3.4V146.6
			c0-1.9,1.6-3.4,3.4-3.4h84c1.9,0,3.4,1.6,3.4,3.4V382.2z"></path>
		<path class="st8" d="M249.9,76.5v40.1h5V76.8C253.2,76.7,251.5,76.6,249.9,76.5z"></path>
	</g>
</g>
</svg>
