%TF.GenerationSoftware,KiCad,Pcbnew,7.0.8*%
%TF.CreationDate,2023-10-17T23:29:07+09:00*%
%TF.ProjectId,radicon-client,72616469-636f-46e2-9d63-6c69656e742e,rev?*%
%TF.SameCoordinates,Original*%
%TF.FileFunction,Copper,L2,Bot*%
%TF.FilePolarity,Positive*%
%FSLAX46Y46*%
G04 Gerber Fmt 4.6, Leading zero omitted, Abs format (unit mm)*
G04 Created by KiCad (PCBNEW 7.0.8) date 2023-10-17 23:29:07*
%MOMM*%
%LPD*%
G01*
G04 APERTURE LIST*
G04 Aperture macros list*
%AMRoundRect*
0 Rectangle with rounded corners*
0 $1 Rounding radius*
0 $2 $3 $4 $5 $6 $7 $8 $9 X,Y pos of 4 corners*
0 Add a 4 corners polygon primitive as box body*
4,1,4,$2,$3,$4,$5,$6,$7,$8,$9,$2,$3,0*
0 Add four circle primitives for the rounded corners*
1,1,$1+$1,$2,$3*
1,1,$1+$1,$4,$5*
1,1,$1+$1,$6,$7*
1,1,$1+$1,$8,$9*
0 Add four rect primitives between the rounded corners*
20,1,$1+$1,$2,$3,$4,$5,0*
20,1,$1+$1,$4,$5,$6,$7,0*
20,1,$1+$1,$6,$7,$8,$9,0*
20,1,$1+$1,$8,$9,$2,$3,0*%
G04 Aperture macros list end*
%TA.AperFunction,ComponentPad*%
%ADD10C,1.600000*%
%TD*%
%TA.AperFunction,ComponentPad*%
%ADD11O,1.600000X1.600000*%
%TD*%
%TA.AperFunction,ComponentPad*%
%ADD12R,1.800000X1.800000*%
%TD*%
%TA.AperFunction,ComponentPad*%
%ADD13C,1.800000*%
%TD*%
%TA.AperFunction,ComponentPad*%
%ADD14RoundRect,0.250000X0.350000X0.625000X-0.350000X0.625000X-0.350000X-0.625000X0.350000X-0.625000X0*%
%TD*%
%TA.AperFunction,ComponentPad*%
%ADD15O,1.200000X1.750000*%
%TD*%
%TA.AperFunction,ComponentPad*%
%ADD16R,3.000000X3.000000*%
%TD*%
%TA.AperFunction,ComponentPad*%
%ADD17C,3.000000*%
%TD*%
%TA.AperFunction,ComponentPad*%
%ADD18R,1.600000X1.600000*%
%TD*%
%TA.AperFunction,ViaPad*%
%ADD19C,0.800000*%
%TD*%
%TA.AperFunction,Conductor*%
%ADD20C,1.000000*%
%TD*%
G04 APERTURE END LIST*
D10*
%TO.P,R2,1*%
%TO.N,GND*%
X152000000Y-100920000D03*
D11*
%TO.P,R2,2*%
%TO.N,Net-(D1-K)*%
X152000000Y-111080000D03*
%TD*%
D12*
%TO.P,D1,1,K*%
%TO.N,Net-(D1-K)*%
X152000000Y-114460000D03*
D13*
%TO.P,D1,2,A*%
%TO.N,+3V0*%
X152000000Y-117000000D03*
%TD*%
D14*
%TO.P,J1,1,Pin_1*%
%TO.N,Net-(J1-Pin_1)*%
X145000000Y-70950000D03*
D15*
%TO.P,J1,2,Pin_2*%
%TO.N,GND*%
X143000000Y-70950000D03*
%TD*%
D16*
%TO.P,BT1,1,+*%
%TO.N,+3V0*%
X144000000Y-114750000D03*
D17*
%TO.P,BT1,2,-*%
%TO.N,GND*%
X144000000Y-135240000D03*
%TD*%
D10*
%TO.P,R1,1*%
%TO.N,GND*%
X139000000Y-76960000D03*
D11*
%TO.P,R1,2*%
%TO.N,Net-(Q1-G)*%
X139000000Y-87120000D03*
%TD*%
D18*
%TO.P,U1,1,GND*%
%TO.N,GND*%
X151240000Y-98080000D03*
D11*
%TO.P,U1,2,DIO14/SCL*%
%TO.N,unconnected-(U1-DIO14{slash}SCL-Pad2)*%
X151240000Y-95540000D03*
%TO.P,U1,3,DIO7/RX*%
%TO.N,unconnected-(U1-DIO7{slash}RX-Pad3)*%
X151240000Y-93000000D03*
%TO.P,U1,4,DIO5/PWM1*%
%TO.N,Net-(Q1-G)*%
X151240000Y-90460000D03*
%TO.P,U1,5,DIO18/DO1*%
%TO.N,unconnected-(U1-DIO18{slash}DO1-Pad5)*%
X151240000Y-87920000D03*
%TO.P,U1,6,DO0/PWM2*%
%TO.N,unconnected-(U1-DO0{slash}PWM2-Pad6)*%
X151240000Y-85380000D03*
%TO.P,U1,7,DO1/PWM3*%
%TO.N,unconnected-(U1-DO1{slash}PWM3-Pad7)*%
X151240000Y-82840000D03*
%TO.P,U1,8,DIO19/DO2*%
%TO.N,unconnected-(U1-DIO19{slash}DO2-Pad8)*%
X151240000Y-80300000D03*
%TO.P,U1,9,DIO4/DO3*%
%TO.N,unconnected-(U1-DIO4{slash}DO3-Pad9)*%
X151240000Y-77760000D03*
%TO.P,U1,10,DIO6/TX*%
%TO.N,unconnected-(U1-DIO6{slash}TX-Pad10)*%
X151240000Y-75220000D03*
%TO.P,U1,11,DIO8/PWM4*%
%TO.N,unconnected-(U1-DIO8{slash}PWM4-Pad11)*%
X151240000Y-72680000D03*
%TO.P,U1,12,DIO9/DO4*%
%TO.N,unconnected-(U1-DIO9{slash}DO4-Pad12)*%
X151240000Y-70140000D03*
%TO.P,U1,13,DIO10/M1*%
%TO.N,unconnected-(U1-DIO10{slash}M1-Pad13)*%
X151240000Y-67600000D03*
%TO.P,U1,14,GND*%
%TO.N,GND*%
X151240000Y-65060000D03*
%TO.P,U1,15,DIO12/DI1*%
%TO.N,unconnected-(U1-DIO12{slash}DI1-Pad15)*%
X136000000Y-65060000D03*
%TO.P,U1,16,DIO13/DI2*%
%TO.N,unconnected-(U1-DIO13{slash}DI2-Pad16)*%
X136000000Y-67600000D03*
%TO.P,U1,17,DIO11/DI3*%
%TO.N,unconnected-(U1-DIO11{slash}DI3-Pad17)*%
X136000000Y-70140000D03*
%TO.P,U1,18,DIO16/DI4*%
%TO.N,unconnected-(U1-DIO16{slash}DI4-Pad18)*%
X136000000Y-72680000D03*
%TO.P,U1,19,DIO15/SDA*%
%TO.N,unconnected-(U1-DIO15{slash}SDA-Pad19)*%
X136000000Y-75220000D03*
%TO.P,U1,20,DIO17/BPS*%
%TO.N,unconnected-(U1-DIO17{slash}BPS-Pad20)*%
X136000000Y-77760000D03*
%TO.P,U1,21,~{RESET}*%
%TO.N,unconnected-(U1-~{RESET}-Pad21)*%
X136000000Y-80300000D03*
%TO.P,U1,22,ADC1/AI1*%
%TO.N,unconnected-(U1-ADC1{slash}AI1-Pad22)*%
X136000000Y-82840000D03*
%TO.P,U1,23,DIO0/AI2*%
%TO.N,unconnected-(U1-DIO0{slash}AI2-Pad23)*%
X136000000Y-85380000D03*
%TO.P,U1,24,ADC2/AI3*%
%TO.N,unconnected-(U1-ADC2{slash}AI3-Pad24)*%
X136000000Y-87920000D03*
%TO.P,U1,25,DIO1/AI4*%
%TO.N,unconnected-(U1-DIO1{slash}AI4-Pad25)*%
X136000000Y-90460000D03*
%TO.P,U1,26,DIO2/M2*%
%TO.N,unconnected-(U1-DIO2{slash}M2-Pad26)*%
X136000000Y-93000000D03*
%TO.P,U1,27,DIO3/M3*%
%TO.N,unconnected-(U1-DIO3{slash}M3-Pad27)*%
X136000000Y-95540000D03*
%TO.P,U1,28,VCC*%
%TO.N,+3V0*%
X136000000Y-98080000D03*
%TD*%
D19*
%TO.N,GND*%
X141028000Y-74770600D03*
%TD*%
D20*
%TO.N,+3V0*%
X146250000Y-117000000D02*
X144000000Y-114750000D01*
X136000000Y-106750000D02*
X136000000Y-98080000D01*
X144000000Y-114750000D02*
X136000000Y-106750000D01*
X152000000Y-117000000D02*
X146250000Y-117000000D01*
%TD*%
%TA.AperFunction,Conductor*%
%TO.N,GND*%
G36*
X155942539Y-62020185D02*
G01*
X155988294Y-62072989D01*
X155999500Y-62124500D01*
X155999500Y-145378514D01*
X155979815Y-145445553D01*
X155927011Y-145491308D01*
X155878030Y-145502488D01*
X132127030Y-145987201D01*
X132059603Y-145968889D01*
X132012780Y-145917029D01*
X132000500Y-145863227D01*
X132000500Y-135240001D01*
X141994891Y-135240001D01*
X142015300Y-135525362D01*
X142076109Y-135804895D01*
X142176091Y-136072958D01*
X142313191Y-136324038D01*
X142313196Y-136324046D01*
X142419882Y-136466561D01*
X142419883Y-136466562D01*
X143322803Y-135563641D01*
X143346059Y-135617553D01*
X143450756Y-135758185D01*
X143585062Y-135870882D01*
X143676665Y-135916886D01*
X142773436Y-136820115D01*
X142915960Y-136926807D01*
X142915961Y-136926808D01*
X143167042Y-137063908D01*
X143167041Y-137063908D01*
X143435104Y-137163890D01*
X143714637Y-137224699D01*
X143999999Y-137245109D01*
X144000001Y-137245109D01*
X144285362Y-137224699D01*
X144564895Y-137163890D01*
X144832958Y-137063908D01*
X145084047Y-136926803D01*
X145226561Y-136820116D01*
X145226562Y-136820115D01*
X144325946Y-135919498D01*
X144338891Y-135914787D01*
X144485373Y-135818445D01*
X144605688Y-135690918D01*
X144678447Y-135564894D01*
X145580115Y-136466562D01*
X145580116Y-136466561D01*
X145686803Y-136324047D01*
X145823908Y-136072958D01*
X145923890Y-135804895D01*
X145984699Y-135525362D01*
X146005109Y-135240001D01*
X146005109Y-135239998D01*
X145984699Y-134954637D01*
X145923890Y-134675104D01*
X145823908Y-134407041D01*
X145686808Y-134155961D01*
X145686807Y-134155960D01*
X145580115Y-134013436D01*
X144677195Y-134916356D01*
X144653941Y-134862447D01*
X144549244Y-134721815D01*
X144414938Y-134609118D01*
X144323333Y-134563112D01*
X145226562Y-133659883D01*
X145226561Y-133659882D01*
X145084046Y-133553196D01*
X145084038Y-133553191D01*
X144832957Y-133416091D01*
X144832958Y-133416091D01*
X144564895Y-133316109D01*
X144285362Y-133255300D01*
X144000001Y-133234891D01*
X143999999Y-133234891D01*
X143714637Y-133255300D01*
X143435104Y-133316109D01*
X143167041Y-133416091D01*
X142915961Y-133553191D01*
X142915953Y-133553196D01*
X142773437Y-133659882D01*
X142773436Y-133659883D01*
X143674054Y-134560501D01*
X143661109Y-134565213D01*
X143514627Y-134661555D01*
X143394312Y-134789082D01*
X143321552Y-134915105D01*
X142419883Y-134013436D01*
X142419882Y-134013437D01*
X142313196Y-134155953D01*
X142313191Y-134155961D01*
X142176091Y-134407041D01*
X142076109Y-134675104D01*
X142015300Y-134954637D01*
X141994891Y-135239998D01*
X141994891Y-135240001D01*
X132000500Y-135240001D01*
X132000500Y-98080001D01*
X134694532Y-98080001D01*
X134714364Y-98306686D01*
X134714366Y-98306697D01*
X134773258Y-98526488D01*
X134773261Y-98526497D01*
X134869431Y-98732732D01*
X134869432Y-98732734D01*
X134977075Y-98886465D01*
X134999402Y-98952671D01*
X134999500Y-98957588D01*
X134999500Y-106737283D01*
X134997243Y-106826362D01*
X134997243Y-106826370D01*
X135008064Y-106886739D01*
X135008718Y-106891404D01*
X135014925Y-106952430D01*
X135014927Y-106952444D01*
X135025208Y-106985213D01*
X135027079Y-106992837D01*
X135033142Y-107026652D01*
X135033142Y-107026655D01*
X135055894Y-107083612D01*
X135057474Y-107088051D01*
X135075841Y-107146588D01*
X135075844Y-107146595D01*
X135092509Y-107176619D01*
X135095879Y-107183714D01*
X135108622Y-107215614D01*
X135108627Y-107215624D01*
X135130808Y-107249280D01*
X135140500Y-107263986D01*
X135142377Y-107266833D01*
X135144818Y-107270863D01*
X135174588Y-107324498D01*
X135174589Y-107324499D01*
X135174591Y-107324502D01*
X135196968Y-107350567D01*
X135201693Y-107356835D01*
X135214263Y-107375906D01*
X135220598Y-107385519D01*
X135263978Y-107428899D01*
X135267169Y-107432343D01*
X135305799Y-107477340D01*
X135307134Y-107478895D01*
X135334294Y-107499918D01*
X135340190Y-107505111D01*
X141963181Y-114128102D01*
X141996666Y-114189425D01*
X141999500Y-114215783D01*
X141999500Y-116297870D01*
X141999501Y-116297876D01*
X142005908Y-116357483D01*
X142056202Y-116492328D01*
X142056206Y-116492335D01*
X142142452Y-116607544D01*
X142142455Y-116607547D01*
X142257664Y-116693793D01*
X142257671Y-116693797D01*
X142392517Y-116744091D01*
X142392516Y-116744091D01*
X142399444Y-116744835D01*
X142452127Y-116750500D01*
X144534215Y-116750499D01*
X144601254Y-116770184D01*
X144621896Y-116786818D01*
X145291379Y-117456300D01*
X145533566Y-117698487D01*
X145594941Y-117763053D01*
X145645294Y-117798100D01*
X145649037Y-117800922D01*
X145674711Y-117821856D01*
X145696595Y-117839700D01*
X145717053Y-117850385D01*
X145727045Y-117855605D01*
X145733755Y-117859670D01*
X145738759Y-117863153D01*
X145761951Y-117879295D01*
X145818322Y-117903486D01*
X145822571Y-117905503D01*
X145876951Y-117933910D01*
X145909980Y-117943359D01*
X145917372Y-117945992D01*
X145943730Y-117957303D01*
X145948942Y-117959540D01*
X146009029Y-117971887D01*
X146013595Y-117973009D01*
X146040131Y-117980601D01*
X146072582Y-117989887D01*
X146106839Y-117992495D01*
X146114614Y-117993586D01*
X146148255Y-118000500D01*
X146148259Y-118000500D01*
X146209599Y-118000500D01*
X146214305Y-118000678D01*
X146249063Y-118003325D01*
X146275476Y-118005337D01*
X146275476Y-118005336D01*
X146275477Y-118005337D01*
X146309560Y-118000996D01*
X146317390Y-118000500D01*
X150963536Y-118000500D01*
X151030575Y-118020185D01*
X151047521Y-118033272D01*
X151048204Y-118033901D01*
X151048216Y-118033913D01*
X151231374Y-118176470D01*
X151435497Y-118286936D01*
X151549487Y-118326068D01*
X151655015Y-118362297D01*
X151655017Y-118362297D01*
X151655019Y-118362298D01*
X151883951Y-118400500D01*
X151883952Y-118400500D01*
X152116048Y-118400500D01*
X152116049Y-118400500D01*
X152344981Y-118362298D01*
X152564503Y-118286936D01*
X152768626Y-118176470D01*
X152951784Y-118033913D01*
X153108979Y-117863153D01*
X153235924Y-117668849D01*
X153329157Y-117456300D01*
X153386134Y-117231305D01*
X153405300Y-117000000D01*
X153405300Y-116999993D01*
X153386135Y-116768702D01*
X153386133Y-116768691D01*
X153329157Y-116543699D01*
X153235924Y-116331151D01*
X153108983Y-116136852D01*
X153108980Y-116136849D01*
X153108979Y-116136847D01*
X153014195Y-116033884D01*
X152983275Y-115971232D01*
X152991135Y-115901806D01*
X153035283Y-115847651D01*
X153062095Y-115833722D01*
X153142326Y-115803798D01*
X153142326Y-115803797D01*
X153142331Y-115803796D01*
X153257546Y-115717546D01*
X153343796Y-115602331D01*
X153394091Y-115467483D01*
X153400500Y-115407873D01*
X153400499Y-113512128D01*
X153394091Y-113452517D01*
X153343796Y-113317669D01*
X153343795Y-113317668D01*
X153343793Y-113317664D01*
X153257547Y-113202455D01*
X153257544Y-113202452D01*
X153142335Y-113116206D01*
X153142328Y-113116202D01*
X153007482Y-113065908D01*
X153007483Y-113065908D01*
X152947883Y-113059501D01*
X152947881Y-113059500D01*
X152947873Y-113059500D01*
X152947864Y-113059500D01*
X151052129Y-113059500D01*
X151052123Y-113059501D01*
X150992516Y-113065908D01*
X150857671Y-113116202D01*
X150857664Y-113116206D01*
X150742455Y-113202452D01*
X150742452Y-113202455D01*
X150656206Y-113317664D01*
X150656202Y-113317671D01*
X150605908Y-113452517D01*
X150599501Y-113512116D01*
X150599501Y-113512123D01*
X150599500Y-113512135D01*
X150599500Y-115407870D01*
X150599501Y-115407876D01*
X150605908Y-115467483D01*
X150656202Y-115602328D01*
X150656206Y-115602335D01*
X150742452Y-115717544D01*
X150742455Y-115717547D01*
X150820850Y-115776234D01*
X150862721Y-115832168D01*
X150867705Y-115901859D01*
X150834219Y-115963182D01*
X150772896Y-115996666D01*
X150746539Y-115999500D01*
X146715782Y-115999500D01*
X146648743Y-115979815D01*
X146628101Y-115963181D01*
X146036818Y-115371898D01*
X146003333Y-115310575D01*
X146000499Y-115284217D01*
X146000499Y-113202129D01*
X146000498Y-113202123D01*
X145994091Y-113142516D01*
X145943797Y-113007671D01*
X145943793Y-113007664D01*
X145857547Y-112892455D01*
X145857544Y-112892452D01*
X145742335Y-112806206D01*
X145742328Y-112806202D01*
X145607482Y-112755908D01*
X145607483Y-112755908D01*
X145547883Y-112749501D01*
X145547881Y-112749500D01*
X145547873Y-112749500D01*
X145547865Y-112749500D01*
X143465783Y-112749500D01*
X143398744Y-112729815D01*
X143378102Y-112713181D01*
X141744922Y-111080001D01*
X150694532Y-111080001D01*
X150714364Y-111306686D01*
X150714366Y-111306697D01*
X150773258Y-111526488D01*
X150773261Y-111526497D01*
X150869431Y-111732732D01*
X150869432Y-111732734D01*
X150999954Y-111919141D01*
X151160858Y-112080045D01*
X151160861Y-112080047D01*
X151347266Y-112210568D01*
X151553504Y-112306739D01*
X151773308Y-112365635D01*
X151935230Y-112379801D01*
X151999998Y-112385468D01*
X152000000Y-112385468D01*
X152000002Y-112385468D01*
X152056673Y-112380509D01*
X152226692Y-112365635D01*
X152446496Y-112306739D01*
X152652734Y-112210568D01*
X152839139Y-112080047D01*
X153000047Y-111919139D01*
X153130568Y-111732734D01*
X153226739Y-111526496D01*
X153285635Y-111306692D01*
X153305468Y-111080000D01*
X153285635Y-110853308D01*
X153226739Y-110633504D01*
X153130568Y-110427266D01*
X153000047Y-110240861D01*
X153000045Y-110240858D01*
X152839141Y-110079954D01*
X152652734Y-109949432D01*
X152652732Y-109949431D01*
X152446497Y-109853261D01*
X152446488Y-109853258D01*
X152226697Y-109794366D01*
X152226693Y-109794365D01*
X152226692Y-109794365D01*
X152226691Y-109794364D01*
X152226686Y-109794364D01*
X152000002Y-109774532D01*
X151999998Y-109774532D01*
X151773313Y-109794364D01*
X151773302Y-109794366D01*
X151553511Y-109853258D01*
X151553502Y-109853261D01*
X151347267Y-109949431D01*
X151347265Y-109949432D01*
X151160858Y-110079954D01*
X150999954Y-110240858D01*
X150869432Y-110427265D01*
X150869431Y-110427267D01*
X150773261Y-110633502D01*
X150773258Y-110633511D01*
X150714366Y-110853302D01*
X150714364Y-110853313D01*
X150694532Y-111079998D01*
X150694532Y-111080001D01*
X141744922Y-111080001D01*
X137036819Y-106371898D01*
X137003334Y-106310575D01*
X137000500Y-106284217D01*
X137000500Y-104000000D01*
X139994675Y-104000000D01*
X140013962Y-104392591D01*
X140071467Y-104780264D01*
X140071637Y-104781406D01*
X140167143Y-105162684D01*
X140299561Y-105532770D01*
X140299562Y-105532772D01*
X140467620Y-105888100D01*
X140563363Y-106047837D01*
X140669694Y-106225239D01*
X140903835Y-106540942D01*
X140903846Y-106540956D01*
X141167807Y-106832192D01*
X141459043Y-107096153D01*
X141459049Y-107096158D01*
X141774761Y-107330306D01*
X141813545Y-107353552D01*
X142111899Y-107532379D01*
X142111902Y-107532380D01*
X142111903Y-107532381D01*
X142467228Y-107700438D01*
X142533478Y-107724142D01*
X142537710Y-107725804D01*
X142537726Y-107725812D01*
X142542278Y-107727341D01*
X142544580Y-107728115D01*
X142837316Y-107832857D01*
X142909701Y-107850988D01*
X142914342Y-107852348D01*
X142915964Y-107852893D01*
X142925398Y-107855046D01*
X142931055Y-107856338D01*
X143218595Y-107928363D01*
X143218597Y-107928363D01*
X143218600Y-107928364D01*
X143296298Y-107939889D01*
X143300964Y-107940767D01*
X143304975Y-107941683D01*
X143326961Y-107944437D01*
X143607409Y-107986038D01*
X143689805Y-107990085D01*
X143694453Y-107990490D01*
X143700894Y-107991298D01*
X143728451Y-107991984D01*
X144000000Y-108005325D01*
X144086410Y-108001079D01*
X144090948Y-108001024D01*
X144099785Y-108001245D01*
X144131630Y-107998858D01*
X144392591Y-107986038D01*
X144482157Y-107972752D01*
X144486589Y-107972258D01*
X144497684Y-107971427D01*
X144532614Y-107965267D01*
X144781400Y-107928364D01*
X144873210Y-107905366D01*
X144877426Y-107904468D01*
X144890638Y-107902139D01*
X144927470Y-107891775D01*
X145162684Y-107832857D01*
X145255677Y-107799583D01*
X145259689Y-107798303D01*
X145274739Y-107794069D01*
X145312402Y-107779287D01*
X145532772Y-107700438D01*
X145625823Y-107656427D01*
X145629584Y-107654803D01*
X145644432Y-107648975D01*
X145646170Y-107648294D01*
X145646172Y-107648293D01*
X145683666Y-107629069D01*
X145888097Y-107532381D01*
X145979970Y-107477313D01*
X145983479Y-107475365D01*
X146001245Y-107466258D01*
X146037701Y-107442711D01*
X146225239Y-107330306D01*
X146314691Y-107263963D01*
X146317931Y-107261719D01*
X146336428Y-107249773D01*
X146370986Y-107222212D01*
X146540951Y-107096158D01*
X146626664Y-107018471D01*
X146629573Y-107015997D01*
X146648391Y-107000991D01*
X146680418Y-106969751D01*
X146832192Y-106832192D01*
X146912796Y-106743258D01*
X146915398Y-106740559D01*
X146934032Y-106722384D01*
X146962925Y-106687951D01*
X146990970Y-106657007D01*
X147096158Y-106540951D01*
X147098899Y-106537256D01*
X147109397Y-106523099D01*
X147170308Y-106440971D01*
X147172554Y-106438124D01*
X147190514Y-106416721D01*
X147215800Y-106379632D01*
X147330306Y-106225239D01*
X147396613Y-106114611D01*
X147398502Y-106111658D01*
X147415288Y-106087039D01*
X147436630Y-106047847D01*
X147532381Y-105888097D01*
X147589488Y-105767354D01*
X147591027Y-105764325D01*
X147606118Y-105736615D01*
X147623247Y-105695977D01*
X147700438Y-105532772D01*
X147746989Y-105402668D01*
X147748226Y-105399496D01*
X147761110Y-105368932D01*
X147773912Y-105327422D01*
X147832857Y-105162684D01*
X147867587Y-105024034D01*
X147868452Y-105020936D01*
X147878722Y-104987644D01*
X147886901Y-104947183D01*
X147887501Y-104944530D01*
X147928364Y-104781400D01*
X147950040Y-104635269D01*
X147950583Y-104632163D01*
X147957785Y-104596540D01*
X147961788Y-104556533D01*
X147962137Y-104553714D01*
X147986038Y-104392591D01*
X147993529Y-104240100D01*
X147993757Y-104237051D01*
X147997514Y-104199508D01*
X147998189Y-104145240D01*
X148005325Y-104000000D01*
X147998189Y-103854763D01*
X147997514Y-103800498D01*
X147997514Y-103800492D01*
X147993757Y-103762953D01*
X147993529Y-103759896D01*
X147986038Y-103607409D01*
X147962143Y-103446326D01*
X147961783Y-103443418D01*
X147957785Y-103403460D01*
X147950587Y-103367855D01*
X147950036Y-103364704D01*
X147928364Y-103218600D01*
X147887505Y-103055482D01*
X147886898Y-103052803D01*
X147878722Y-103012356D01*
X147868457Y-102979078D01*
X147867585Y-102975959D01*
X147832857Y-102837316D01*
X147832854Y-102837307D01*
X147832854Y-102837306D01*
X147773921Y-102672600D01*
X147761108Y-102631063D01*
X147748224Y-102600499D01*
X147746979Y-102597302D01*
X147700445Y-102467247D01*
X147700438Y-102467229D01*
X147700438Y-102467228D01*
X147700433Y-102467217D01*
X147700430Y-102467210D01*
X147623256Y-102304042D01*
X147606125Y-102263401D01*
X147606123Y-102263398D01*
X147606118Y-102263385D01*
X147591042Y-102235701D01*
X147589464Y-102232595D01*
X147576479Y-102205141D01*
X147532381Y-102111903D01*
X147436632Y-101952155D01*
X147415287Y-101912959D01*
X147398537Y-101888392D01*
X147396596Y-101885360D01*
X147332246Y-101777997D01*
X147330304Y-101774757D01*
X147215807Y-101620377D01*
X147190517Y-101583282D01*
X147172593Y-101561922D01*
X147170288Y-101559001D01*
X147148507Y-101529633D01*
X147096158Y-101459049D01*
X147012119Y-101366326D01*
X146962926Y-101312050D01*
X146934025Y-101277608D01*
X146915428Y-101259470D01*
X146912778Y-101256721D01*
X146832192Y-101167808D01*
X146832188Y-101167805D01*
X146832186Y-101167802D01*
X146680424Y-101030253D01*
X146648394Y-100999011D01*
X146648380Y-100998999D01*
X146629609Y-100984030D01*
X146626638Y-100981504D01*
X146545919Y-100908345D01*
X146540949Y-100903840D01*
X146371010Y-100777804D01*
X146336431Y-100750229D01*
X146336423Y-100750223D01*
X146317951Y-100738292D01*
X146314656Y-100736010D01*
X146225241Y-100669695D01*
X146037706Y-100557291D01*
X146001245Y-100533742D01*
X146001246Y-100533742D01*
X145983526Y-100524658D01*
X145979935Y-100522664D01*
X145888097Y-100467619D01*
X145683688Y-100370940D01*
X145646166Y-100351704D01*
X145629614Y-100345208D01*
X145625771Y-100343547D01*
X145576614Y-100320298D01*
X145532788Y-100299569D01*
X145532777Y-100299564D01*
X145532772Y-100299562D01*
X145532766Y-100299559D01*
X145532752Y-100299554D01*
X145312406Y-100220714D01*
X145274737Y-100205930D01*
X145264732Y-100203115D01*
X145259730Y-100201708D01*
X145255639Y-100200402D01*
X145162682Y-100167142D01*
X144927495Y-100108230D01*
X144890648Y-100097863D01*
X144890638Y-100097861D01*
X144877457Y-100095536D01*
X144873165Y-100094620D01*
X144781409Y-100071637D01*
X144532622Y-100034733D01*
X144509184Y-100030600D01*
X144497684Y-100028573D01*
X144497681Y-100028572D01*
X144497677Y-100028572D01*
X144497670Y-100028571D01*
X144486594Y-100027741D01*
X144482135Y-100027243D01*
X144392602Y-100013963D01*
X144392595Y-100013962D01*
X144392591Y-100013962D01*
X144153027Y-100002192D01*
X144131638Y-100001142D01*
X144099789Y-99998755D01*
X144099785Y-99998755D01*
X144098773Y-99998780D01*
X144090972Y-99998974D01*
X144086393Y-99998918D01*
X144000000Y-99994675D01*
X143728479Y-100008014D01*
X143700905Y-100008701D01*
X143700877Y-100008703D01*
X143694450Y-100009508D01*
X143689794Y-100009913D01*
X143607407Y-100013961D01*
X143373900Y-100048599D01*
X143326993Y-100055557D01*
X143318907Y-100056571D01*
X143304975Y-100058316D01*
X143304972Y-100058317D01*
X143300961Y-100059232D01*
X143296277Y-100060112D01*
X143218607Y-100071634D01*
X142931052Y-100143662D01*
X142915954Y-100147108D01*
X142915945Y-100147111D01*
X142914317Y-100147658D01*
X142909657Y-100149021D01*
X142837320Y-100167141D01*
X142544577Y-100271885D01*
X142537724Y-100274188D01*
X142533404Y-100275883D01*
X142467236Y-100299558D01*
X142467232Y-100299560D01*
X142111899Y-100467620D01*
X141774763Y-100669692D01*
X141459043Y-100903846D01*
X141167807Y-101167807D01*
X140903846Y-101459043D01*
X140669692Y-101774763D01*
X140467620Y-102111899D01*
X140299562Y-102467227D01*
X140299561Y-102467229D01*
X140167143Y-102837315D01*
X140071637Y-103218593D01*
X140037854Y-103446344D01*
X140013962Y-103607409D01*
X139994675Y-104000000D01*
X137000500Y-104000000D01*
X137000500Y-98957588D01*
X137020185Y-98890549D01*
X137022925Y-98886465D01*
X137130568Y-98732734D01*
X137226739Y-98526496D01*
X137285635Y-98306692D01*
X137305468Y-98080000D01*
X137285635Y-97853308D01*
X137226739Y-97633504D01*
X137130568Y-97427266D01*
X137000047Y-97240861D01*
X137000045Y-97240858D01*
X136839141Y-97079954D01*
X136652734Y-96949432D01*
X136652728Y-96949429D01*
X136625038Y-96936517D01*
X136594724Y-96922381D01*
X136542285Y-96876210D01*
X136523133Y-96809017D01*
X136543348Y-96742135D01*
X136594725Y-96697618D01*
X136652734Y-96670568D01*
X136839139Y-96540047D01*
X137000047Y-96379139D01*
X137130568Y-96192734D01*
X137226739Y-95986496D01*
X137285635Y-95766692D01*
X137305468Y-95540001D01*
X149934532Y-95540001D01*
X149954364Y-95766686D01*
X149954366Y-95766697D01*
X150013258Y-95986488D01*
X150013261Y-95986497D01*
X150109431Y-96192732D01*
X150109432Y-96192734D01*
X150239954Y-96379141D01*
X150400858Y-96540045D01*
X150426086Y-96557710D01*
X150469711Y-96612287D01*
X150476905Y-96681785D01*
X150445382Y-96744140D01*
X150385153Y-96779554D01*
X150368221Y-96782574D01*
X150332626Y-96786401D01*
X150332620Y-96786403D01*
X150197913Y-96836645D01*
X150197906Y-96836649D01*
X150082812Y-96922809D01*
X150082809Y-96922812D01*
X149996649Y-97037906D01*
X149996645Y-97037913D01*
X149946403Y-97172620D01*
X149946401Y-97172627D01*
X149940000Y-97232155D01*
X149940000Y-97830000D01*
X150924314Y-97830000D01*
X150912359Y-97841955D01*
X150854835Y-97954852D01*
X150835014Y-98080000D01*
X150854835Y-98205148D01*
X150912359Y-98318045D01*
X150924314Y-98330000D01*
X149940000Y-98330000D01*
X149940000Y-98927844D01*
X149946401Y-98987372D01*
X149946403Y-98987379D01*
X149996645Y-99122086D01*
X149996649Y-99122093D01*
X150082809Y-99237187D01*
X150082812Y-99237190D01*
X150197906Y-99323350D01*
X150197913Y-99323354D01*
X150332620Y-99373596D01*
X150332627Y-99373598D01*
X150392155Y-99379999D01*
X150392172Y-99380000D01*
X150990000Y-99380000D01*
X150990000Y-98395686D01*
X151001955Y-98407641D01*
X151114852Y-98465165D01*
X151208519Y-98480000D01*
X151271481Y-98480000D01*
X151365148Y-98465165D01*
X151478045Y-98407641D01*
X151490000Y-98395686D01*
X151490000Y-99380000D01*
X151846383Y-99380000D01*
X151913422Y-99399685D01*
X151959177Y-99452489D01*
X151969121Y-99521647D01*
X151940096Y-99585203D01*
X151881318Y-99622977D01*
X151857190Y-99627528D01*
X151773400Y-99634858D01*
X151773389Y-99634860D01*
X151553682Y-99693730D01*
X151553673Y-99693734D01*
X151347513Y-99789868D01*
X151274527Y-99840972D01*
X151274526Y-99840973D01*
X151955600Y-100522046D01*
X151874852Y-100534835D01*
X151761955Y-100592359D01*
X151672359Y-100681955D01*
X151614835Y-100794852D01*
X151602046Y-100875599D01*
X150920973Y-100194526D01*
X150920972Y-100194527D01*
X150869868Y-100267513D01*
X150773734Y-100473673D01*
X150773730Y-100473682D01*
X150714860Y-100693389D01*
X150714858Y-100693400D01*
X150695034Y-100919997D01*
X150695034Y-100920002D01*
X150714858Y-101146599D01*
X150714860Y-101146610D01*
X150773730Y-101366317D01*
X150773734Y-101366326D01*
X150869865Y-101572481D01*
X150869866Y-101572483D01*
X150920973Y-101645471D01*
X150920974Y-101645472D01*
X151602046Y-100964399D01*
X151614835Y-101045148D01*
X151672359Y-101158045D01*
X151761955Y-101247641D01*
X151874852Y-101305165D01*
X151955599Y-101317953D01*
X151274526Y-101999025D01*
X151274526Y-101999026D01*
X151347512Y-102050131D01*
X151347516Y-102050133D01*
X151553673Y-102146265D01*
X151553682Y-102146269D01*
X151773389Y-102205139D01*
X151773400Y-102205141D01*
X151999998Y-102224966D01*
X152000002Y-102224966D01*
X152226599Y-102205141D01*
X152226610Y-102205139D01*
X152446317Y-102146269D01*
X152446331Y-102146264D01*
X152652478Y-102050136D01*
X152725472Y-101999025D01*
X152044401Y-101317953D01*
X152125148Y-101305165D01*
X152238045Y-101247641D01*
X152327641Y-101158045D01*
X152385165Y-101045148D01*
X152397953Y-100964400D01*
X153079025Y-101645472D01*
X153130136Y-101572478D01*
X153226264Y-101366331D01*
X153226269Y-101366317D01*
X153285139Y-101146610D01*
X153285141Y-101146599D01*
X153304966Y-100920002D01*
X153304966Y-100919997D01*
X153285141Y-100693400D01*
X153285139Y-100693389D01*
X153226269Y-100473682D01*
X153226265Y-100473673D01*
X153130133Y-100267516D01*
X153130131Y-100267512D01*
X153079026Y-100194526D01*
X153079025Y-100194526D01*
X152397953Y-100875598D01*
X152385165Y-100794852D01*
X152327641Y-100681955D01*
X152238045Y-100592359D01*
X152125148Y-100534835D01*
X152044400Y-100522046D01*
X152725472Y-99840974D01*
X152725471Y-99840973D01*
X152652483Y-99789866D01*
X152652481Y-99789865D01*
X152446326Y-99693734D01*
X152446317Y-99693730D01*
X152226610Y-99634860D01*
X152226600Y-99634858D01*
X152110202Y-99624675D01*
X152045134Y-99599222D01*
X152004155Y-99542632D01*
X152000277Y-99472870D01*
X152034731Y-99412085D01*
X152096578Y-99379578D01*
X152107755Y-99377858D01*
X152147372Y-99373598D01*
X152147379Y-99373596D01*
X152282086Y-99323354D01*
X152282093Y-99323350D01*
X152397187Y-99237190D01*
X152397190Y-99237187D01*
X152483350Y-99122093D01*
X152483354Y-99122086D01*
X152533596Y-98987379D01*
X152533598Y-98987372D01*
X152539999Y-98927844D01*
X152540000Y-98927827D01*
X152540000Y-98330000D01*
X151555686Y-98330000D01*
X151567641Y-98318045D01*
X151625165Y-98205148D01*
X151644986Y-98080000D01*
X151625165Y-97954852D01*
X151567641Y-97841955D01*
X151555686Y-97830000D01*
X152540000Y-97830000D01*
X152540000Y-97232172D01*
X152539999Y-97232155D01*
X152533598Y-97172627D01*
X152533596Y-97172620D01*
X152483354Y-97037913D01*
X152483350Y-97037906D01*
X152397190Y-96922812D01*
X152397187Y-96922809D01*
X152282093Y-96836649D01*
X152282086Y-96836645D01*
X152147379Y-96786403D01*
X152147373Y-96786401D01*
X152111778Y-96782574D01*
X152047228Y-96755835D01*
X152007381Y-96698441D01*
X152004888Y-96628616D01*
X152040542Y-96568528D01*
X152053913Y-96557710D01*
X152079139Y-96540047D01*
X152240047Y-96379139D01*
X152370568Y-96192734D01*
X152466739Y-95986496D01*
X152525635Y-95766692D01*
X152545468Y-95540000D01*
X152525635Y-95313308D01*
X152466739Y-95093504D01*
X152370568Y-94887266D01*
X152240047Y-94700861D01*
X152240045Y-94700858D01*
X152079141Y-94539954D01*
X151892734Y-94409432D01*
X151892728Y-94409429D01*
X151834725Y-94382382D01*
X151782285Y-94336210D01*
X151763133Y-94269017D01*
X151783348Y-94202135D01*
X151834725Y-94157618D01*
X151892734Y-94130568D01*
X152079139Y-94000047D01*
X152240047Y-93839139D01*
X152370568Y-93652734D01*
X152466739Y-93446496D01*
X152525635Y-93226692D01*
X152545468Y-93000000D01*
X152525635Y-92773308D01*
X152466739Y-92553504D01*
X152370568Y-92347266D01*
X152240047Y-92160861D01*
X152240045Y-92160858D01*
X152079141Y-91999954D01*
X151892734Y-91869432D01*
X151892728Y-91869429D01*
X151834725Y-91842382D01*
X151782285Y-91796210D01*
X151763133Y-91729017D01*
X151783348Y-91662135D01*
X151834725Y-91617618D01*
X151892734Y-91590568D01*
X152079139Y-91460047D01*
X152240047Y-91299139D01*
X152370568Y-91112734D01*
X152466739Y-90906496D01*
X152525635Y-90686692D01*
X152545468Y-90460000D01*
X152525635Y-90233308D01*
X152466739Y-90013504D01*
X152370568Y-89807266D01*
X152240047Y-89620861D01*
X152240045Y-89620858D01*
X152079141Y-89459954D01*
X151892734Y-89329432D01*
X151892728Y-89329429D01*
X151834725Y-89302382D01*
X151782285Y-89256210D01*
X151763133Y-89189017D01*
X151783348Y-89122135D01*
X151834725Y-89077618D01*
X151892734Y-89050568D01*
X152079139Y-88920047D01*
X152240047Y-88759139D01*
X152370568Y-88572734D01*
X152466739Y-88366496D01*
X152525635Y-88146692D01*
X152545468Y-87920000D01*
X152525635Y-87693308D01*
X152466739Y-87473504D01*
X152370568Y-87267266D01*
X152240047Y-87080861D01*
X152240045Y-87080858D01*
X152079141Y-86919954D01*
X151892734Y-86789432D01*
X151892728Y-86789429D01*
X151834725Y-86762382D01*
X151782285Y-86716210D01*
X151763133Y-86649017D01*
X151783348Y-86582135D01*
X151834725Y-86537618D01*
X151892734Y-86510568D01*
X152079139Y-86380047D01*
X152240047Y-86219139D01*
X152370568Y-86032734D01*
X152466739Y-85826496D01*
X152525635Y-85606692D01*
X152545468Y-85380000D01*
X152525635Y-85153308D01*
X152466739Y-84933504D01*
X152370568Y-84727266D01*
X152240047Y-84540861D01*
X152240045Y-84540858D01*
X152079141Y-84379954D01*
X151892734Y-84249432D01*
X151892728Y-84249429D01*
X151834725Y-84222382D01*
X151782285Y-84176210D01*
X151763133Y-84109017D01*
X151783348Y-84042135D01*
X151834725Y-83997618D01*
X151892734Y-83970568D01*
X152079139Y-83840047D01*
X152240047Y-83679139D01*
X152370568Y-83492734D01*
X152466739Y-83286496D01*
X152525635Y-83066692D01*
X152545468Y-82840000D01*
X152525635Y-82613308D01*
X152466739Y-82393504D01*
X152370568Y-82187266D01*
X152240047Y-82000861D01*
X152240045Y-82000858D01*
X152079141Y-81839954D01*
X151892734Y-81709432D01*
X151892728Y-81709429D01*
X151834725Y-81682382D01*
X151782285Y-81636210D01*
X151763133Y-81569017D01*
X151783348Y-81502135D01*
X151834725Y-81457618D01*
X151892734Y-81430568D01*
X152079139Y-81300047D01*
X152240047Y-81139139D01*
X152370568Y-80952734D01*
X152466739Y-80746496D01*
X152525635Y-80526692D01*
X152545468Y-80300000D01*
X152525635Y-80073308D01*
X152466739Y-79853504D01*
X152370568Y-79647266D01*
X152240047Y-79460861D01*
X152240045Y-79460858D01*
X152079141Y-79299954D01*
X151892734Y-79169432D01*
X151892728Y-79169429D01*
X151834725Y-79142382D01*
X151782285Y-79096210D01*
X151763133Y-79029017D01*
X151783348Y-78962135D01*
X151834725Y-78917618D01*
X151892734Y-78890568D01*
X152079139Y-78760047D01*
X152240047Y-78599139D01*
X152370568Y-78412734D01*
X152466739Y-78206496D01*
X152525635Y-77986692D01*
X152545468Y-77760000D01*
X152525635Y-77533308D01*
X152479198Y-77360000D01*
X152466741Y-77313511D01*
X152466738Y-77313502D01*
X152370568Y-77107267D01*
X152370567Y-77107265D01*
X152240045Y-76920858D01*
X152079141Y-76759954D01*
X151892734Y-76629432D01*
X151892728Y-76629429D01*
X151865038Y-76616517D01*
X151834724Y-76602381D01*
X151782285Y-76556210D01*
X151763133Y-76489017D01*
X151783348Y-76422135D01*
X151834725Y-76377618D01*
X151892734Y-76350568D01*
X152079139Y-76220047D01*
X152240047Y-76059139D01*
X152370568Y-75872734D01*
X152466739Y-75666496D01*
X152525635Y-75446692D01*
X152545468Y-75220000D01*
X152525635Y-74993308D01*
X152466739Y-74773504D01*
X152370568Y-74567266D01*
X152240047Y-74380861D01*
X152240045Y-74380858D01*
X152079141Y-74219954D01*
X151892734Y-74089432D01*
X151892728Y-74089429D01*
X151834725Y-74062382D01*
X151782285Y-74016210D01*
X151763133Y-73949017D01*
X151783348Y-73882135D01*
X151834725Y-73837618D01*
X151892734Y-73810568D01*
X152079139Y-73680047D01*
X152240047Y-73519139D01*
X152370568Y-73332734D01*
X152466739Y-73126496D01*
X152525635Y-72906692D01*
X152545468Y-72680000D01*
X152525635Y-72453308D01*
X152466739Y-72233504D01*
X152370568Y-72027266D01*
X152240047Y-71840861D01*
X152240045Y-71840858D01*
X152079141Y-71679954D01*
X151892734Y-71549432D01*
X151892728Y-71549429D01*
X151834725Y-71522382D01*
X151782285Y-71476210D01*
X151763133Y-71409017D01*
X151783348Y-71342135D01*
X151834725Y-71297618D01*
X151892734Y-71270568D01*
X152079139Y-71140047D01*
X152240047Y-70979139D01*
X152370568Y-70792734D01*
X152466739Y-70586496D01*
X152525635Y-70366692D01*
X152545468Y-70140000D01*
X152525635Y-69913308D01*
X152466739Y-69693504D01*
X152370568Y-69487266D01*
X152240047Y-69300861D01*
X152240045Y-69300858D01*
X152079141Y-69139954D01*
X151892734Y-69009432D01*
X151892728Y-69009429D01*
X151834725Y-68982382D01*
X151782285Y-68936210D01*
X151763133Y-68869017D01*
X151783348Y-68802135D01*
X151834725Y-68757618D01*
X151892734Y-68730568D01*
X152079139Y-68600047D01*
X152240047Y-68439139D01*
X152370568Y-68252734D01*
X152466739Y-68046496D01*
X152525635Y-67826692D01*
X152545468Y-67600000D01*
X152525635Y-67373308D01*
X152466739Y-67153504D01*
X152370568Y-66947266D01*
X152240047Y-66760861D01*
X152240045Y-66760858D01*
X152079141Y-66599954D01*
X151892734Y-66469432D01*
X151892732Y-66469431D01*
X151834725Y-66442382D01*
X151834132Y-66442105D01*
X151781694Y-66395934D01*
X151762542Y-66328740D01*
X151782758Y-66261859D01*
X151834134Y-66217341D01*
X151892484Y-66190132D01*
X152078820Y-66059657D01*
X152239657Y-65898820D01*
X152370134Y-65712482D01*
X152466265Y-65506326D01*
X152466269Y-65506317D01*
X152518872Y-65310000D01*
X151555686Y-65310000D01*
X151567641Y-65298045D01*
X151625165Y-65185148D01*
X151644986Y-65060000D01*
X151625165Y-64934852D01*
X151567641Y-64821955D01*
X151555686Y-64810000D01*
X152518872Y-64810000D01*
X152518872Y-64809999D01*
X152466269Y-64613682D01*
X152466265Y-64613673D01*
X152370134Y-64407517D01*
X152239657Y-64221179D01*
X152078820Y-64060342D01*
X151892482Y-63929865D01*
X151686328Y-63833734D01*
X151490000Y-63781127D01*
X151490000Y-64744314D01*
X151478045Y-64732359D01*
X151365148Y-64674835D01*
X151271481Y-64660000D01*
X151208519Y-64660000D01*
X151114852Y-64674835D01*
X151001955Y-64732359D01*
X150990000Y-64744314D01*
X150990000Y-63781127D01*
X150793671Y-63833734D01*
X150587517Y-63929865D01*
X150401179Y-64060342D01*
X150240342Y-64221179D01*
X150109865Y-64407517D01*
X150013734Y-64613673D01*
X150013730Y-64613682D01*
X149961127Y-64809999D01*
X149961128Y-64810000D01*
X150924314Y-64810000D01*
X150912359Y-64821955D01*
X150854835Y-64934852D01*
X150835014Y-65060000D01*
X150854835Y-65185148D01*
X150912359Y-65298045D01*
X150924314Y-65310000D01*
X149961128Y-65310000D01*
X150013730Y-65506317D01*
X150013734Y-65506326D01*
X150109865Y-65712482D01*
X150240342Y-65898820D01*
X150401179Y-66059657D01*
X150587518Y-66190134D01*
X150587520Y-66190135D01*
X150645865Y-66217342D01*
X150698305Y-66263514D01*
X150717457Y-66330707D01*
X150697242Y-66397589D01*
X150645867Y-66442105D01*
X150587268Y-66469431D01*
X150587264Y-66469433D01*
X150400858Y-66599954D01*
X150239954Y-66760858D01*
X150109432Y-66947265D01*
X150109431Y-66947267D01*
X150013261Y-67153502D01*
X150013258Y-67153511D01*
X149954366Y-67373302D01*
X149954364Y-67373313D01*
X149934532Y-67599998D01*
X149934532Y-67600001D01*
X149954364Y-67826686D01*
X149954366Y-67826697D01*
X150013258Y-68046488D01*
X150013261Y-68046497D01*
X150109431Y-68252732D01*
X150109432Y-68252734D01*
X150239954Y-68439141D01*
X150400858Y-68600045D01*
X150400861Y-68600047D01*
X150587266Y-68730568D01*
X150645275Y-68757618D01*
X150697714Y-68803791D01*
X150716866Y-68870984D01*
X150696650Y-68937865D01*
X150645275Y-68982382D01*
X150587267Y-69009431D01*
X150587265Y-69009432D01*
X150400858Y-69139954D01*
X150239954Y-69300858D01*
X150109432Y-69487265D01*
X150109431Y-69487267D01*
X150013261Y-69693502D01*
X150013258Y-69693511D01*
X149954366Y-69913302D01*
X149954364Y-69913313D01*
X149934532Y-70139998D01*
X149934532Y-70140001D01*
X149954364Y-70366686D01*
X149954366Y-70366697D01*
X150013258Y-70586488D01*
X150013261Y-70586497D01*
X150109431Y-70792732D01*
X150109432Y-70792734D01*
X150239954Y-70979141D01*
X150400858Y-71140045D01*
X150447693Y-71172839D01*
X150587266Y-71270568D01*
X150645275Y-71297618D01*
X150697714Y-71343791D01*
X150716866Y-71410984D01*
X150696650Y-71477865D01*
X150645275Y-71522382D01*
X150587267Y-71549431D01*
X150587265Y-71549432D01*
X150400858Y-71679954D01*
X150239954Y-71840858D01*
X150109432Y-72027265D01*
X150109431Y-72027267D01*
X150013261Y-72233502D01*
X150013258Y-72233511D01*
X149954366Y-72453302D01*
X149954364Y-72453313D01*
X149934532Y-72679998D01*
X149934532Y-72680001D01*
X149954364Y-72906686D01*
X149954366Y-72906697D01*
X150013258Y-73126488D01*
X150013261Y-73126497D01*
X150109431Y-73332732D01*
X150109432Y-73332734D01*
X150239954Y-73519141D01*
X150400858Y-73680045D01*
X150400861Y-73680047D01*
X150587266Y-73810568D01*
X150645275Y-73837618D01*
X150697714Y-73883791D01*
X150716866Y-73950984D01*
X150696650Y-74017865D01*
X150645275Y-74062382D01*
X150587267Y-74089431D01*
X150587265Y-74089432D01*
X150400858Y-74219954D01*
X150239954Y-74380858D01*
X150109432Y-74567265D01*
X150109431Y-74567267D01*
X150013261Y-74773502D01*
X150013258Y-74773511D01*
X149954366Y-74993302D01*
X149954364Y-74993313D01*
X149934532Y-75219998D01*
X149934532Y-75220001D01*
X149954364Y-75446686D01*
X149954366Y-75446697D01*
X150013258Y-75666488D01*
X150013261Y-75666497D01*
X150109431Y-75872732D01*
X150109432Y-75872734D01*
X150239954Y-76059141D01*
X150400858Y-76220045D01*
X150400861Y-76220047D01*
X150587266Y-76350568D01*
X150645275Y-76377618D01*
X150697714Y-76423791D01*
X150716866Y-76490984D01*
X150696650Y-76557865D01*
X150645275Y-76602381D01*
X150628272Y-76610310D01*
X150587267Y-76629431D01*
X150587265Y-76629432D01*
X150400858Y-76759954D01*
X150239954Y-76920858D01*
X150109432Y-77107265D01*
X150109431Y-77107267D01*
X150013261Y-77313502D01*
X150013258Y-77313511D01*
X149954366Y-77533302D01*
X149954364Y-77533313D01*
X149934532Y-77759998D01*
X149934532Y-77760001D01*
X149954364Y-77986686D01*
X149954366Y-77986697D01*
X150013258Y-78206488D01*
X150013261Y-78206497D01*
X150109431Y-78412732D01*
X150109432Y-78412734D01*
X150239954Y-78599141D01*
X150400858Y-78760045D01*
X150400861Y-78760047D01*
X150587266Y-78890568D01*
X150645275Y-78917618D01*
X150697714Y-78963791D01*
X150716866Y-79030984D01*
X150696650Y-79097865D01*
X150645275Y-79142382D01*
X150587267Y-79169431D01*
X150587265Y-79169432D01*
X150400858Y-79299954D01*
X150239954Y-79460858D01*
X150109432Y-79647265D01*
X150109431Y-79647267D01*
X150013261Y-79853502D01*
X150013258Y-79853511D01*
X149954366Y-80073302D01*
X149954364Y-80073313D01*
X149934532Y-80299998D01*
X149934532Y-80300001D01*
X149954364Y-80526686D01*
X149954366Y-80526697D01*
X150013258Y-80746488D01*
X150013261Y-80746497D01*
X150109431Y-80952732D01*
X150109432Y-80952734D01*
X150239954Y-81139141D01*
X150400858Y-81300045D01*
X150400861Y-81300047D01*
X150587266Y-81430568D01*
X150645275Y-81457618D01*
X150697714Y-81503791D01*
X150716866Y-81570984D01*
X150696650Y-81637865D01*
X150645275Y-81682382D01*
X150587267Y-81709431D01*
X150587265Y-81709432D01*
X150400858Y-81839954D01*
X150239954Y-82000858D01*
X150109432Y-82187265D01*
X150109431Y-82187267D01*
X150013261Y-82393502D01*
X150013258Y-82393511D01*
X149954366Y-82613302D01*
X149954364Y-82613313D01*
X149934532Y-82839998D01*
X149934532Y-82840001D01*
X149954364Y-83066686D01*
X149954366Y-83066697D01*
X150013258Y-83286488D01*
X150013261Y-83286497D01*
X150109431Y-83492732D01*
X150109432Y-83492734D01*
X150239954Y-83679141D01*
X150400858Y-83840045D01*
X150400861Y-83840047D01*
X150587266Y-83970568D01*
X150645275Y-83997618D01*
X150697714Y-84043791D01*
X150716866Y-84110984D01*
X150696650Y-84177865D01*
X150645275Y-84222382D01*
X150587267Y-84249431D01*
X150587265Y-84249432D01*
X150400858Y-84379954D01*
X150239954Y-84540858D01*
X150109432Y-84727265D01*
X150109431Y-84727267D01*
X150013261Y-84933502D01*
X150013258Y-84933511D01*
X149954366Y-85153302D01*
X149954364Y-85153313D01*
X149934532Y-85379998D01*
X149934532Y-85380001D01*
X149954364Y-85606686D01*
X149954366Y-85606697D01*
X150013258Y-85826488D01*
X150013261Y-85826497D01*
X150109431Y-86032732D01*
X150109432Y-86032734D01*
X150239954Y-86219141D01*
X150400858Y-86380045D01*
X150400861Y-86380047D01*
X150587266Y-86510568D01*
X150645275Y-86537618D01*
X150697714Y-86583791D01*
X150716866Y-86650984D01*
X150696650Y-86717865D01*
X150645275Y-86762382D01*
X150587267Y-86789431D01*
X150587265Y-86789432D01*
X150400858Y-86919954D01*
X150239954Y-87080858D01*
X150109432Y-87267265D01*
X150109431Y-87267267D01*
X150013261Y-87473502D01*
X150013258Y-87473511D01*
X149954366Y-87693302D01*
X149954364Y-87693313D01*
X149934532Y-87919998D01*
X149934532Y-87920001D01*
X149954364Y-88146686D01*
X149954366Y-88146697D01*
X150013258Y-88366488D01*
X150013261Y-88366497D01*
X150109431Y-88572732D01*
X150109432Y-88572734D01*
X150239954Y-88759141D01*
X150400858Y-88920045D01*
X150400861Y-88920047D01*
X150587266Y-89050568D01*
X150645275Y-89077618D01*
X150697714Y-89123791D01*
X150716866Y-89190984D01*
X150696650Y-89257865D01*
X150645275Y-89302382D01*
X150587267Y-89329431D01*
X150587265Y-89329432D01*
X150400858Y-89459954D01*
X150239954Y-89620858D01*
X150109432Y-89807265D01*
X150109431Y-89807267D01*
X150013261Y-90013502D01*
X150013258Y-90013511D01*
X149954366Y-90233302D01*
X149954364Y-90233313D01*
X149934532Y-90459998D01*
X149934532Y-90460001D01*
X149954364Y-90686686D01*
X149954366Y-90686697D01*
X150013258Y-90906488D01*
X150013261Y-90906497D01*
X150109431Y-91112732D01*
X150109432Y-91112734D01*
X150239954Y-91299141D01*
X150400858Y-91460045D01*
X150400861Y-91460047D01*
X150587266Y-91590568D01*
X150645275Y-91617618D01*
X150697714Y-91663791D01*
X150716866Y-91730984D01*
X150696650Y-91797865D01*
X150645275Y-91842382D01*
X150587267Y-91869431D01*
X150587265Y-91869432D01*
X150400858Y-91999954D01*
X150239954Y-92160858D01*
X150109432Y-92347265D01*
X150109431Y-92347267D01*
X150013261Y-92553502D01*
X150013258Y-92553511D01*
X149954366Y-92773302D01*
X149954364Y-92773313D01*
X149934532Y-92999998D01*
X149934532Y-93000001D01*
X149954364Y-93226686D01*
X149954366Y-93226697D01*
X150013258Y-93446488D01*
X150013261Y-93446497D01*
X150109431Y-93652732D01*
X150109432Y-93652734D01*
X150239954Y-93839141D01*
X150400858Y-94000045D01*
X150400861Y-94000047D01*
X150587266Y-94130568D01*
X150645275Y-94157618D01*
X150697714Y-94203791D01*
X150716866Y-94270984D01*
X150696650Y-94337865D01*
X150645275Y-94382382D01*
X150587267Y-94409431D01*
X150587265Y-94409432D01*
X150400858Y-94539954D01*
X150239954Y-94700858D01*
X150109432Y-94887265D01*
X150109431Y-94887267D01*
X150013261Y-95093502D01*
X150013258Y-95093511D01*
X149954366Y-95313302D01*
X149954364Y-95313313D01*
X149934532Y-95539998D01*
X149934532Y-95540001D01*
X137305468Y-95540001D01*
X137305468Y-95540000D01*
X137285635Y-95313308D01*
X137226739Y-95093504D01*
X137130568Y-94887266D01*
X137000047Y-94700861D01*
X137000045Y-94700858D01*
X136839141Y-94539954D01*
X136652734Y-94409432D01*
X136652728Y-94409429D01*
X136594725Y-94382382D01*
X136542285Y-94336210D01*
X136523133Y-94269017D01*
X136543348Y-94202135D01*
X136594725Y-94157618D01*
X136652734Y-94130568D01*
X136839139Y-94000047D01*
X137000047Y-93839139D01*
X137130568Y-93652734D01*
X137226739Y-93446496D01*
X137285635Y-93226692D01*
X137305468Y-93000000D01*
X137285635Y-92773308D01*
X137226739Y-92553504D01*
X137130568Y-92347266D01*
X137000047Y-92160861D01*
X137000045Y-92160858D01*
X136839141Y-91999954D01*
X136652734Y-91869432D01*
X136652728Y-91869429D01*
X136594725Y-91842382D01*
X136542285Y-91796210D01*
X136523133Y-91729017D01*
X136543348Y-91662135D01*
X136594725Y-91617618D01*
X136652734Y-91590568D01*
X136839139Y-91460047D01*
X137000047Y-91299139D01*
X137130568Y-91112734D01*
X137226739Y-90906496D01*
X137285635Y-90686692D01*
X137305468Y-90460000D01*
X137285635Y-90233308D01*
X137226739Y-90013504D01*
X137130568Y-89807266D01*
X137000047Y-89620861D01*
X137000045Y-89620858D01*
X136839141Y-89459954D01*
X136652734Y-89329432D01*
X136652728Y-89329429D01*
X136594725Y-89302382D01*
X136542285Y-89256210D01*
X136523133Y-89189017D01*
X136543348Y-89122135D01*
X136594725Y-89077618D01*
X136652734Y-89050568D01*
X136839139Y-88920047D01*
X137000047Y-88759139D01*
X137130568Y-88572734D01*
X137226739Y-88366496D01*
X137285635Y-88146692D01*
X137305468Y-87920000D01*
X137285635Y-87693308D01*
X137226739Y-87473504D01*
X137130568Y-87267266D01*
X137027453Y-87120001D01*
X137694532Y-87120001D01*
X137714364Y-87346686D01*
X137714366Y-87346697D01*
X137773258Y-87566488D01*
X137773261Y-87566497D01*
X137869431Y-87772732D01*
X137869432Y-87772734D01*
X137999954Y-87959141D01*
X138160858Y-88120045D01*
X138160861Y-88120047D01*
X138347266Y-88250568D01*
X138553504Y-88346739D01*
X138773308Y-88405635D01*
X138935230Y-88419801D01*
X138999998Y-88425468D01*
X139000000Y-88425468D01*
X139000002Y-88425468D01*
X139056673Y-88420509D01*
X139226692Y-88405635D01*
X139446496Y-88346739D01*
X139652734Y-88250568D01*
X139839139Y-88120047D01*
X140000047Y-87959139D01*
X140130568Y-87772734D01*
X140226739Y-87566496D01*
X140285635Y-87346692D01*
X140305468Y-87120000D01*
X140285635Y-86893308D01*
X140226739Y-86673504D01*
X140130568Y-86467266D01*
X140000047Y-86280861D01*
X140000045Y-86280858D01*
X139839141Y-86119954D01*
X139652734Y-85989432D01*
X139652732Y-85989431D01*
X139446497Y-85893261D01*
X139446488Y-85893258D01*
X139226697Y-85834366D01*
X139226693Y-85834365D01*
X139226692Y-85834365D01*
X139226691Y-85834364D01*
X139226686Y-85834364D01*
X139000002Y-85814532D01*
X138999998Y-85814532D01*
X138773313Y-85834364D01*
X138773302Y-85834366D01*
X138553511Y-85893258D01*
X138553502Y-85893261D01*
X138347267Y-85989431D01*
X138347265Y-85989432D01*
X138160858Y-86119954D01*
X137999954Y-86280858D01*
X137869432Y-86467265D01*
X137869431Y-86467267D01*
X137773261Y-86673502D01*
X137773258Y-86673511D01*
X137714366Y-86893302D01*
X137714364Y-86893313D01*
X137694532Y-87119998D01*
X137694532Y-87120001D01*
X137027453Y-87120001D01*
X137000047Y-87080861D01*
X137000045Y-87080858D01*
X136839141Y-86919954D01*
X136652734Y-86789432D01*
X136652728Y-86789429D01*
X136594725Y-86762382D01*
X136542285Y-86716210D01*
X136523133Y-86649017D01*
X136543348Y-86582135D01*
X136594725Y-86537618D01*
X136652734Y-86510568D01*
X136839139Y-86380047D01*
X137000047Y-86219139D01*
X137130568Y-86032734D01*
X137226739Y-85826496D01*
X137285635Y-85606692D01*
X137305468Y-85380000D01*
X137285635Y-85153308D01*
X137226739Y-84933504D01*
X137130568Y-84727266D01*
X137000047Y-84540861D01*
X137000045Y-84540858D01*
X136839141Y-84379954D01*
X136652734Y-84249432D01*
X136652728Y-84249429D01*
X136594725Y-84222382D01*
X136542285Y-84176210D01*
X136523133Y-84109017D01*
X136543348Y-84042135D01*
X136594725Y-83997618D01*
X136652734Y-83970568D01*
X136839139Y-83840047D01*
X137000047Y-83679139D01*
X137130568Y-83492734D01*
X137226739Y-83286496D01*
X137285635Y-83066692D01*
X137305468Y-82840000D01*
X137285635Y-82613308D01*
X137226739Y-82393504D01*
X137130568Y-82187266D01*
X137000047Y-82000861D01*
X137000045Y-82000858D01*
X136839141Y-81839954D01*
X136652734Y-81709432D01*
X136652728Y-81709429D01*
X136594725Y-81682382D01*
X136542285Y-81636210D01*
X136523133Y-81569017D01*
X136543348Y-81502135D01*
X136594725Y-81457618D01*
X136652734Y-81430568D01*
X136839139Y-81300047D01*
X137000047Y-81139139D01*
X137130568Y-80952734D01*
X137226739Y-80746496D01*
X137285635Y-80526692D01*
X137305468Y-80300000D01*
X137285635Y-80073308D01*
X137226739Y-79853504D01*
X137130568Y-79647266D01*
X137000047Y-79460861D01*
X137000045Y-79460858D01*
X136839141Y-79299954D01*
X136652734Y-79169432D01*
X136652728Y-79169429D01*
X136594725Y-79142382D01*
X136542285Y-79096210D01*
X136523133Y-79029017D01*
X136543348Y-78962135D01*
X136594725Y-78917618D01*
X136652734Y-78890568D01*
X136839139Y-78760047D01*
X137000047Y-78599139D01*
X137130568Y-78412734D01*
X137226739Y-78206496D01*
X137285635Y-77986692D01*
X137305468Y-77760000D01*
X137285635Y-77533308D01*
X137239198Y-77360000D01*
X137226741Y-77313511D01*
X137226738Y-77313502D01*
X137130568Y-77107267D01*
X137130567Y-77107265D01*
X137027454Y-76960002D01*
X137695034Y-76960002D01*
X137714858Y-77186599D01*
X137714860Y-77186610D01*
X137773730Y-77406317D01*
X137773734Y-77406326D01*
X137869865Y-77612481D01*
X137869866Y-77612483D01*
X137920973Y-77685471D01*
X137920974Y-77685472D01*
X138602046Y-77004399D01*
X138614835Y-77085148D01*
X138672359Y-77198045D01*
X138761955Y-77287641D01*
X138874852Y-77345165D01*
X138955599Y-77357953D01*
X138274526Y-78039025D01*
X138274526Y-78039026D01*
X138347512Y-78090131D01*
X138347516Y-78090133D01*
X138553673Y-78186265D01*
X138553682Y-78186269D01*
X138773389Y-78245139D01*
X138773400Y-78245141D01*
X138999998Y-78264966D01*
X139000002Y-78264966D01*
X139226599Y-78245141D01*
X139226610Y-78245139D01*
X139446317Y-78186269D01*
X139446331Y-78186264D01*
X139652478Y-78090136D01*
X139725472Y-78039025D01*
X139044401Y-77357953D01*
X139125148Y-77345165D01*
X139238045Y-77287641D01*
X139327641Y-77198045D01*
X139385165Y-77085148D01*
X139397953Y-77004400D01*
X140079025Y-77685472D01*
X140130136Y-77612478D01*
X140226264Y-77406331D01*
X140226269Y-77406317D01*
X140285139Y-77186610D01*
X140285141Y-77186599D01*
X140304966Y-76960002D01*
X140304966Y-76959997D01*
X140285141Y-76733400D01*
X140285139Y-76733389D01*
X140226269Y-76513682D01*
X140226265Y-76513673D01*
X140130133Y-76307516D01*
X140130131Y-76307512D01*
X140079026Y-76234526D01*
X140079025Y-76234526D01*
X139397953Y-76915598D01*
X139385165Y-76834852D01*
X139327641Y-76721955D01*
X139238045Y-76632359D01*
X139125148Y-76574835D01*
X139044400Y-76562046D01*
X139725472Y-75880974D01*
X139725471Y-75880973D01*
X139652483Y-75829866D01*
X139652481Y-75829865D01*
X139446326Y-75733734D01*
X139446317Y-75733730D01*
X139226610Y-75674860D01*
X139226599Y-75674858D01*
X139000002Y-75655034D01*
X138999998Y-75655034D01*
X138773400Y-75674858D01*
X138773389Y-75674860D01*
X138553682Y-75733730D01*
X138553673Y-75733734D01*
X138347513Y-75829868D01*
X138274527Y-75880972D01*
X138274526Y-75880973D01*
X138955600Y-76562046D01*
X138874852Y-76574835D01*
X138761955Y-76632359D01*
X138672359Y-76721955D01*
X138614835Y-76834852D01*
X138602046Y-76915599D01*
X137920973Y-76234526D01*
X137920972Y-76234527D01*
X137869868Y-76307513D01*
X137773734Y-76513673D01*
X137773730Y-76513682D01*
X137714860Y-76733389D01*
X137714858Y-76733400D01*
X137695034Y-76959997D01*
X137695034Y-76960002D01*
X137027454Y-76960002D01*
X137000045Y-76920858D01*
X136839141Y-76759954D01*
X136652734Y-76629432D01*
X136652728Y-76629429D01*
X136625038Y-76616517D01*
X136594724Y-76602381D01*
X136542285Y-76556210D01*
X136523133Y-76489017D01*
X136543348Y-76422135D01*
X136594725Y-76377618D01*
X136652734Y-76350568D01*
X136839139Y-76220047D01*
X137000047Y-76059139D01*
X137130568Y-75872734D01*
X137226739Y-75666496D01*
X137285635Y-75446692D01*
X137305468Y-75220000D01*
X137285635Y-74993308D01*
X137226739Y-74773504D01*
X137130568Y-74567266D01*
X137000047Y-74380861D01*
X137000045Y-74380858D01*
X136839141Y-74219954D01*
X136652734Y-74089432D01*
X136652728Y-74089429D01*
X136594725Y-74062382D01*
X136542285Y-74016210D01*
X136523133Y-73949017D01*
X136543348Y-73882135D01*
X136594725Y-73837618D01*
X136652734Y-73810568D01*
X136839139Y-73680047D01*
X137000047Y-73519139D01*
X137130568Y-73332734D01*
X137226739Y-73126496D01*
X137285635Y-72906692D01*
X137305468Y-72680000D01*
X137285635Y-72453308D01*
X137226739Y-72233504D01*
X137130568Y-72027266D01*
X137000047Y-71840861D01*
X137000045Y-71840858D01*
X136839141Y-71679954D01*
X136652734Y-71549432D01*
X136652728Y-71549429D01*
X136594725Y-71522382D01*
X136542285Y-71476210D01*
X136523133Y-71409017D01*
X136543348Y-71342135D01*
X136594725Y-71297618D01*
X136638087Y-71277398D01*
X141900000Y-71277398D01*
X141914965Y-71434122D01*
X141914966Y-71434126D01*
X141974149Y-71635686D01*
X142070413Y-71822414D01*
X142200268Y-71987537D01*
X142200271Y-71987540D01*
X142359030Y-72125105D01*
X142359041Y-72125114D01*
X142540960Y-72230144D01*
X142540967Y-72230147D01*
X142739487Y-72298856D01*
X142750000Y-72300367D01*
X142750000Y-71230617D01*
X142819052Y-71284363D01*
X142937424Y-71325000D01*
X143031073Y-71325000D01*
X143123446Y-71309586D01*
X143233514Y-71250019D01*
X143250000Y-71232110D01*
X143250000Y-72296257D01*
X143361409Y-72269229D01*
X143552507Y-72181959D01*
X143723619Y-72060110D01*
X143723625Y-72060104D01*
X143821478Y-71957478D01*
X143881987Y-71922543D01*
X143951777Y-71925867D01*
X144008692Y-71966394D01*
X144016761Y-71977951D01*
X144047178Y-72027266D01*
X144057288Y-72043656D01*
X144181344Y-72167712D01*
X144330666Y-72259814D01*
X144497203Y-72314999D01*
X144599991Y-72325500D01*
X145400008Y-72325499D01*
X145400016Y-72325498D01*
X145400019Y-72325498D01*
X145456302Y-72319748D01*
X145502797Y-72314999D01*
X145669334Y-72259814D01*
X145818656Y-72167712D01*
X145942712Y-72043656D01*
X146034814Y-71894334D01*
X146089999Y-71727797D01*
X146100500Y-71625009D01*
X146100499Y-70274992D01*
X146089999Y-70172203D01*
X146034814Y-70005666D01*
X145942712Y-69856344D01*
X145818656Y-69732288D01*
X145669334Y-69640186D01*
X145502797Y-69585001D01*
X145502795Y-69585000D01*
X145400010Y-69574500D01*
X144599998Y-69574500D01*
X144599980Y-69574501D01*
X144497203Y-69585000D01*
X144497200Y-69585001D01*
X144330668Y-69640185D01*
X144330663Y-69640187D01*
X144181342Y-69732289D01*
X144057287Y-69856344D01*
X144017905Y-69920193D01*
X143965957Y-69966917D01*
X143896994Y-69978138D01*
X143832912Y-69950295D01*
X143814897Y-69931747D01*
X143799731Y-69912462D01*
X143799728Y-69912459D01*
X143640969Y-69774894D01*
X143640958Y-69774885D01*
X143459039Y-69669855D01*
X143459032Y-69669852D01*
X143260516Y-69601144D01*
X143250000Y-69599632D01*
X143250000Y-70669382D01*
X143180948Y-70615637D01*
X143062576Y-70575000D01*
X142968927Y-70575000D01*
X142876554Y-70590414D01*
X142766486Y-70649981D01*
X142750000Y-70667889D01*
X142750000Y-69603740D01*
X142749999Y-69603740D01*
X142638594Y-69630768D01*
X142638582Y-69630772D01*
X142447497Y-69718037D01*
X142447496Y-69718038D01*
X142276380Y-69839889D01*
X142276374Y-69839895D01*
X142131407Y-69991932D01*
X142017833Y-70168657D01*
X141939755Y-70363685D01*
X141900000Y-70569962D01*
X141900000Y-70700000D01*
X142720440Y-70700000D01*
X142681722Y-70742059D01*
X142631449Y-70856670D01*
X142621114Y-70981395D01*
X142651837Y-71102719D01*
X142715394Y-71200000D01*
X141900000Y-71200000D01*
X141900000Y-71277398D01*
X136638087Y-71277398D01*
X136652734Y-71270568D01*
X136839139Y-71140047D01*
X137000047Y-70979139D01*
X137130568Y-70792734D01*
X137226739Y-70586496D01*
X137285635Y-70366692D01*
X137305468Y-70140000D01*
X137285635Y-69913308D01*
X137226739Y-69693504D01*
X137130568Y-69487266D01*
X137000047Y-69300861D01*
X137000045Y-69300858D01*
X136839141Y-69139954D01*
X136652734Y-69009432D01*
X136652728Y-69009429D01*
X136594725Y-68982382D01*
X136542285Y-68936210D01*
X136523133Y-68869017D01*
X136543348Y-68802135D01*
X136594725Y-68757618D01*
X136652734Y-68730568D01*
X136839139Y-68600047D01*
X137000047Y-68439139D01*
X137130568Y-68252734D01*
X137226739Y-68046496D01*
X137285635Y-67826692D01*
X137305468Y-67600000D01*
X137285635Y-67373308D01*
X137226739Y-67153504D01*
X137130568Y-66947266D01*
X137000047Y-66760861D01*
X137000045Y-66760858D01*
X136839141Y-66599954D01*
X136652734Y-66469432D01*
X136652728Y-66469429D01*
X136594725Y-66442382D01*
X136542285Y-66396210D01*
X136523133Y-66329017D01*
X136543348Y-66262135D01*
X136594725Y-66217618D01*
X136595319Y-66217341D01*
X136652734Y-66190568D01*
X136839139Y-66060047D01*
X137000047Y-65899139D01*
X137130568Y-65712734D01*
X137226739Y-65506496D01*
X137285635Y-65286692D01*
X137305468Y-65060000D01*
X137285635Y-64833308D01*
X137226739Y-64613504D01*
X137130568Y-64407266D01*
X137000047Y-64220861D01*
X137000045Y-64220858D01*
X136839141Y-64059954D01*
X136652734Y-63929432D01*
X136652732Y-63929431D01*
X136446497Y-63833261D01*
X136446488Y-63833258D01*
X136226697Y-63774366D01*
X136226693Y-63774365D01*
X136226692Y-63774365D01*
X136226691Y-63774364D01*
X136226686Y-63774364D01*
X136000002Y-63754532D01*
X135999998Y-63754532D01*
X135773313Y-63774364D01*
X135773302Y-63774366D01*
X135553511Y-63833258D01*
X135553502Y-63833261D01*
X135347267Y-63929431D01*
X135347265Y-63929432D01*
X135160858Y-64059954D01*
X134999954Y-64220858D01*
X134869432Y-64407265D01*
X134869431Y-64407267D01*
X134773261Y-64613502D01*
X134773258Y-64613511D01*
X134714366Y-64833302D01*
X134714364Y-64833313D01*
X134694532Y-65059998D01*
X134694532Y-65060001D01*
X134714364Y-65286686D01*
X134714366Y-65286697D01*
X134773258Y-65506488D01*
X134773261Y-65506497D01*
X134869431Y-65712732D01*
X134869432Y-65712734D01*
X134999954Y-65899141D01*
X135160858Y-66060045D01*
X135160861Y-66060047D01*
X135347266Y-66190568D01*
X135404681Y-66217341D01*
X135405275Y-66217618D01*
X135457714Y-66263791D01*
X135476866Y-66330984D01*
X135456650Y-66397865D01*
X135405275Y-66442382D01*
X135347267Y-66469431D01*
X135347265Y-66469432D01*
X135160858Y-66599954D01*
X134999954Y-66760858D01*
X134869432Y-66947265D01*
X134869431Y-66947267D01*
X134773261Y-67153502D01*
X134773258Y-67153511D01*
X134714366Y-67373302D01*
X134714364Y-67373313D01*
X134694532Y-67599998D01*
X134694532Y-67600001D01*
X134714364Y-67826686D01*
X134714366Y-67826697D01*
X134773258Y-68046488D01*
X134773261Y-68046497D01*
X134869431Y-68252732D01*
X134869432Y-68252734D01*
X134999954Y-68439141D01*
X135160858Y-68600045D01*
X135160861Y-68600047D01*
X135347266Y-68730568D01*
X135405275Y-68757618D01*
X135457714Y-68803791D01*
X135476866Y-68870984D01*
X135456650Y-68937865D01*
X135405275Y-68982382D01*
X135347267Y-69009431D01*
X135347265Y-69009432D01*
X135160858Y-69139954D01*
X134999954Y-69300858D01*
X134869432Y-69487265D01*
X134869431Y-69487267D01*
X134773261Y-69693502D01*
X134773258Y-69693511D01*
X134714366Y-69913302D01*
X134714364Y-69913313D01*
X134694532Y-70139998D01*
X134694532Y-70140001D01*
X134714364Y-70366686D01*
X134714366Y-70366697D01*
X134773258Y-70586488D01*
X134773261Y-70586497D01*
X134869431Y-70792732D01*
X134869432Y-70792734D01*
X134999954Y-70979141D01*
X135160858Y-71140045D01*
X135207693Y-71172839D01*
X135347266Y-71270568D01*
X135405275Y-71297618D01*
X135457714Y-71343791D01*
X135476866Y-71410984D01*
X135456650Y-71477865D01*
X135405275Y-71522382D01*
X135347267Y-71549431D01*
X135347265Y-71549432D01*
X135160858Y-71679954D01*
X134999954Y-71840858D01*
X134869432Y-72027265D01*
X134869431Y-72027267D01*
X134773261Y-72233502D01*
X134773258Y-72233511D01*
X134714366Y-72453302D01*
X134714364Y-72453313D01*
X134694532Y-72679998D01*
X134694532Y-72680001D01*
X134714364Y-72906686D01*
X134714366Y-72906697D01*
X134773258Y-73126488D01*
X134773261Y-73126497D01*
X134869431Y-73332732D01*
X134869432Y-73332734D01*
X134999954Y-73519141D01*
X135160858Y-73680045D01*
X135160861Y-73680047D01*
X135347266Y-73810568D01*
X135405275Y-73837618D01*
X135457714Y-73883791D01*
X135476866Y-73950984D01*
X135456650Y-74017865D01*
X135405275Y-74062382D01*
X135347267Y-74089431D01*
X135347265Y-74089432D01*
X135160858Y-74219954D01*
X134999954Y-74380858D01*
X134869432Y-74567265D01*
X134869431Y-74567267D01*
X134773261Y-74773502D01*
X134773258Y-74773511D01*
X134714366Y-74993302D01*
X134714364Y-74993313D01*
X134694532Y-75219998D01*
X134694532Y-75220001D01*
X134714364Y-75446686D01*
X134714366Y-75446697D01*
X134773258Y-75666488D01*
X134773261Y-75666497D01*
X134869431Y-75872732D01*
X134869432Y-75872734D01*
X134999954Y-76059141D01*
X135160858Y-76220045D01*
X135160861Y-76220047D01*
X135347266Y-76350568D01*
X135405275Y-76377618D01*
X135457714Y-76423791D01*
X135476866Y-76490984D01*
X135456650Y-76557865D01*
X135405275Y-76602381D01*
X135388272Y-76610310D01*
X135347267Y-76629431D01*
X135347265Y-76629432D01*
X135160858Y-76759954D01*
X134999954Y-76920858D01*
X134869432Y-77107265D01*
X134869431Y-77107267D01*
X134773261Y-77313502D01*
X134773258Y-77313511D01*
X134714366Y-77533302D01*
X134714364Y-77533313D01*
X134694532Y-77759998D01*
X134694532Y-77760001D01*
X134714364Y-77986686D01*
X134714366Y-77986697D01*
X134773258Y-78206488D01*
X134773261Y-78206497D01*
X134869431Y-78412732D01*
X134869432Y-78412734D01*
X134999954Y-78599141D01*
X135160858Y-78760045D01*
X135160861Y-78760047D01*
X135347266Y-78890568D01*
X135405275Y-78917618D01*
X135457714Y-78963791D01*
X135476866Y-79030984D01*
X135456650Y-79097865D01*
X135405275Y-79142382D01*
X135347267Y-79169431D01*
X135347265Y-79169432D01*
X135160858Y-79299954D01*
X134999954Y-79460858D01*
X134869432Y-79647265D01*
X134869431Y-79647267D01*
X134773261Y-79853502D01*
X134773258Y-79853511D01*
X134714366Y-80073302D01*
X134714364Y-80073313D01*
X134694532Y-80299998D01*
X134694532Y-80300001D01*
X134714364Y-80526686D01*
X134714366Y-80526697D01*
X134773258Y-80746488D01*
X134773261Y-80746497D01*
X134869431Y-80952732D01*
X134869432Y-80952734D01*
X134999954Y-81139141D01*
X135160858Y-81300045D01*
X135160861Y-81300047D01*
X135347266Y-81430568D01*
X135405275Y-81457618D01*
X135457714Y-81503791D01*
X135476866Y-81570984D01*
X135456650Y-81637865D01*
X135405275Y-81682382D01*
X135347267Y-81709431D01*
X135347265Y-81709432D01*
X135160858Y-81839954D01*
X134999954Y-82000858D01*
X134869432Y-82187265D01*
X134869431Y-82187267D01*
X134773261Y-82393502D01*
X134773258Y-82393511D01*
X134714366Y-82613302D01*
X134714364Y-82613313D01*
X134694532Y-82839998D01*
X134694532Y-82840001D01*
X134714364Y-83066686D01*
X134714366Y-83066697D01*
X134773258Y-83286488D01*
X134773261Y-83286497D01*
X134869431Y-83492732D01*
X134869432Y-83492734D01*
X134999954Y-83679141D01*
X135160858Y-83840045D01*
X135160861Y-83840047D01*
X135347266Y-83970568D01*
X135405275Y-83997618D01*
X135457714Y-84043791D01*
X135476866Y-84110984D01*
X135456650Y-84177865D01*
X135405275Y-84222382D01*
X135347267Y-84249431D01*
X135347265Y-84249432D01*
X135160858Y-84379954D01*
X134999954Y-84540858D01*
X134869432Y-84727265D01*
X134869431Y-84727267D01*
X134773261Y-84933502D01*
X134773258Y-84933511D01*
X134714366Y-85153302D01*
X134714364Y-85153313D01*
X134694532Y-85379998D01*
X134694532Y-85380001D01*
X134714364Y-85606686D01*
X134714366Y-85606697D01*
X134773258Y-85826488D01*
X134773261Y-85826497D01*
X134869431Y-86032732D01*
X134869432Y-86032734D01*
X134999954Y-86219141D01*
X135160858Y-86380045D01*
X135160861Y-86380047D01*
X135347266Y-86510568D01*
X135405275Y-86537618D01*
X135457714Y-86583791D01*
X135476866Y-86650984D01*
X135456650Y-86717865D01*
X135405275Y-86762382D01*
X135347267Y-86789431D01*
X135347265Y-86789432D01*
X135160858Y-86919954D01*
X134999954Y-87080858D01*
X134869432Y-87267265D01*
X134869431Y-87267267D01*
X134773261Y-87473502D01*
X134773258Y-87473511D01*
X134714366Y-87693302D01*
X134714364Y-87693313D01*
X134694532Y-87919998D01*
X134694532Y-87920001D01*
X134714364Y-88146686D01*
X134714366Y-88146697D01*
X134773258Y-88366488D01*
X134773261Y-88366497D01*
X134869431Y-88572732D01*
X134869432Y-88572734D01*
X134999954Y-88759141D01*
X135160858Y-88920045D01*
X135160861Y-88920047D01*
X135347266Y-89050568D01*
X135405275Y-89077618D01*
X135457714Y-89123791D01*
X135476866Y-89190984D01*
X135456650Y-89257865D01*
X135405275Y-89302382D01*
X135347267Y-89329431D01*
X135347265Y-89329432D01*
X135160858Y-89459954D01*
X134999954Y-89620858D01*
X134869432Y-89807265D01*
X134869431Y-89807267D01*
X134773261Y-90013502D01*
X134773258Y-90013511D01*
X134714366Y-90233302D01*
X134714364Y-90233313D01*
X134694532Y-90459998D01*
X134694532Y-90460001D01*
X134714364Y-90686686D01*
X134714366Y-90686697D01*
X134773258Y-90906488D01*
X134773261Y-90906497D01*
X134869431Y-91112732D01*
X134869432Y-91112734D01*
X134999954Y-91299141D01*
X135160858Y-91460045D01*
X135160861Y-91460047D01*
X135347266Y-91590568D01*
X135405275Y-91617618D01*
X135457714Y-91663791D01*
X135476866Y-91730984D01*
X135456650Y-91797865D01*
X135405275Y-91842382D01*
X135347267Y-91869431D01*
X135347265Y-91869432D01*
X135160858Y-91999954D01*
X134999954Y-92160858D01*
X134869432Y-92347265D01*
X134869431Y-92347267D01*
X134773261Y-92553502D01*
X134773258Y-92553511D01*
X134714366Y-92773302D01*
X134714364Y-92773313D01*
X134694532Y-92999998D01*
X134694532Y-93000001D01*
X134714364Y-93226686D01*
X134714366Y-93226697D01*
X134773258Y-93446488D01*
X134773261Y-93446497D01*
X134869431Y-93652732D01*
X134869432Y-93652734D01*
X134999954Y-93839141D01*
X135160858Y-94000045D01*
X135160861Y-94000047D01*
X135347266Y-94130568D01*
X135405275Y-94157618D01*
X135457714Y-94203791D01*
X135476866Y-94270984D01*
X135456650Y-94337865D01*
X135405275Y-94382382D01*
X135347267Y-94409431D01*
X135347265Y-94409432D01*
X135160858Y-94539954D01*
X134999954Y-94700858D01*
X134869432Y-94887265D01*
X134869431Y-94887267D01*
X134773261Y-95093502D01*
X134773258Y-95093511D01*
X134714366Y-95313302D01*
X134714364Y-95313313D01*
X134694532Y-95539998D01*
X134694532Y-95540001D01*
X134714364Y-95766686D01*
X134714366Y-95766697D01*
X134773258Y-95986488D01*
X134773261Y-95986497D01*
X134869431Y-96192732D01*
X134869432Y-96192734D01*
X134999954Y-96379141D01*
X135160858Y-96540045D01*
X135160861Y-96540047D01*
X135347266Y-96670568D01*
X135405275Y-96697618D01*
X135457714Y-96743791D01*
X135476866Y-96810984D01*
X135456650Y-96877865D01*
X135405275Y-96922381D01*
X135388272Y-96930310D01*
X135347267Y-96949431D01*
X135347265Y-96949432D01*
X135160858Y-97079954D01*
X134999954Y-97240858D01*
X134869432Y-97427265D01*
X134869431Y-97427267D01*
X134773261Y-97633502D01*
X134773258Y-97633511D01*
X134714366Y-97853302D01*
X134714364Y-97853313D01*
X134694532Y-98079998D01*
X134694532Y-98080001D01*
X132000500Y-98080001D01*
X132000500Y-62124500D01*
X132020185Y-62057461D01*
X132072989Y-62011706D01*
X132124500Y-62000500D01*
X155875500Y-62000500D01*
X155942539Y-62020185D01*
G37*
%TD.AperFunction*%
%TD*%
M02*
