M48
; DRILL file {KiCad 7.0.8} date 2023 October 22, Sunday 16:51:39
; FORMAT={-:-/ absolute / inch / decimal}
; #@! TF.CreationDate,2023-10-22T16:51:39+09:00
; #@! TF.GenerationSoftware,Kicad,Pcbnew,7.0.8
; #@! TF.FileFunction,Plated,1,2,PTH
FMAT,2
INCH
; #@! TA.AperFunction,Plated,PTH,ViaDrill
T1C0.0157
; #@! TA.AperFunction,Plated,PTH,ComponentDrill
T2C0.0295
; #@! TA.AperFunction,Plated,PTH,ComponentDrill
T3C0.0315
; #@! TA.AperFunction,Plated,PTH,ComponentDrill
T4C0.0354
; #@! TA.AperFunction,Plated,PTH,ComponentDrill
T5C0.0591
%
G90
G05
T1
X5.6417Y-3.7598
X5.7323Y-3.185
X5.7638Y-3.7717
T2
X5.6299Y-2.7343
X5.7087Y-2.7343
T3
X5.3543Y-2.5614
X5.3543Y-2.6614
X5.3543Y-2.7614
X5.3543Y-2.8614
X5.3543Y-2.9614
X5.3543Y-3.0614
X5.3543Y-3.1614
X5.3543Y-3.2614
X5.3543Y-3.3614
X5.3543Y-3.4614
X5.3543Y-3.5614
X5.3543Y-3.6614
X5.3543Y-3.7614
X5.3543Y-3.8614
X5.5Y-2.8827
X5.5Y-3.2827
X5.9543Y-2.5614
X5.9543Y-2.6614
X5.9543Y-2.7614
X5.9543Y-2.8614
X5.9543Y-2.9614
X5.9543Y-3.0614
X5.9543Y-3.1614
X5.9543Y-3.2614
X5.9543Y-3.3614
X5.9543Y-3.4614
X5.9543Y-3.5614
X5.9543Y-3.6614
X5.9543Y-3.7614
X5.9543Y-3.8614
X5.9843Y-3.9732
X5.9843Y-4.3732
T4
X5.9843Y-4.5063
X5.9843Y-4.6063
T5
X5.6693Y-4.5669
X5.6693Y-5.3736
T0
M30
