%TF.GenerationSoftware,KiCad,Pcbnew,7.0.8*%
%TF.CreationDate,2023-10-17T23:29:07+09:00*%
%TF.ProjectId,radicon-client,72616469-636f-46e2-9d63-6c69656e742e,rev?*%
%TF.SameCoordinates,Original*%
%TF.FileFunction,Legend,Top*%
%TF.FilePolarity,Positive*%
%FSLAX46Y46*%
G04 Gerber Fmt 4.6, Leading zero omitted, Abs format (unit mm)*
G04 Created by KiCad (PCBNEW 7.0.8) date 2023-10-17 23:29:07*
%MOMM*%
%LPD*%
G01*
G04 APERTURE LIST*
%ADD10C,0.150000*%
%ADD11C,0.120000*%
G04 APERTURE END LIST*
D10*
X154824819Y-106166666D02*
X154348628Y-106499999D01*
X154824819Y-106738094D02*
X153824819Y-106738094D01*
X153824819Y-106738094D02*
X153824819Y-106357142D01*
X153824819Y-106357142D02*
X153872438Y-106261904D01*
X153872438Y-106261904D02*
X153920057Y-106214285D01*
X153920057Y-106214285D02*
X154015295Y-106166666D01*
X154015295Y-106166666D02*
X154158152Y-106166666D01*
X154158152Y-106166666D02*
X154253390Y-106214285D01*
X154253390Y-106214285D02*
X154301009Y-106261904D01*
X154301009Y-106261904D02*
X154348628Y-106357142D01*
X154348628Y-106357142D02*
X154348628Y-106738094D01*
X153920057Y-105785713D02*
X153872438Y-105738094D01*
X153872438Y-105738094D02*
X153824819Y-105642856D01*
X153824819Y-105642856D02*
X153824819Y-105404761D01*
X153824819Y-105404761D02*
X153872438Y-105309523D01*
X153872438Y-105309523D02*
X153920057Y-105261904D01*
X153920057Y-105261904D02*
X154015295Y-105214285D01*
X154015295Y-105214285D02*
X154110533Y-105214285D01*
X154110533Y-105214285D02*
X154253390Y-105261904D01*
X154253390Y-105261904D02*
X154824819Y-105833332D01*
X154824819Y-105833332D02*
X154824819Y-105214285D01*
X155414819Y-116468094D02*
X154414819Y-116468094D01*
X154414819Y-116468094D02*
X154414819Y-116229999D01*
X154414819Y-116229999D02*
X154462438Y-116087142D01*
X154462438Y-116087142D02*
X154557676Y-115991904D01*
X154557676Y-115991904D02*
X154652914Y-115944285D01*
X154652914Y-115944285D02*
X154843390Y-115896666D01*
X154843390Y-115896666D02*
X154986247Y-115896666D01*
X154986247Y-115896666D02*
X155176723Y-115944285D01*
X155176723Y-115944285D02*
X155271961Y-115991904D01*
X155271961Y-115991904D02*
X155367200Y-116087142D01*
X155367200Y-116087142D02*
X155414819Y-116229999D01*
X155414819Y-116229999D02*
X155414819Y-116468094D01*
X155414819Y-114944285D02*
X155414819Y-115515713D01*
X155414819Y-115229999D02*
X154414819Y-115229999D01*
X154414819Y-115229999D02*
X154557676Y-115325237D01*
X154557676Y-115325237D02*
X154652914Y-115420475D01*
X154652914Y-115420475D02*
X154700533Y-115515713D01*
X144209761Y-86550057D02*
X144114523Y-86502438D01*
X144114523Y-86502438D02*
X144019285Y-86407200D01*
X144019285Y-86407200D02*
X143876428Y-86264342D01*
X143876428Y-86264342D02*
X143781190Y-86216723D01*
X143781190Y-86216723D02*
X143685952Y-86216723D01*
X143733571Y-86454819D02*
X143638333Y-86407200D01*
X143638333Y-86407200D02*
X143543095Y-86311961D01*
X143543095Y-86311961D02*
X143495476Y-86121485D01*
X143495476Y-86121485D02*
X143495476Y-85788152D01*
X143495476Y-85788152D02*
X143543095Y-85597676D01*
X143543095Y-85597676D02*
X143638333Y-85502438D01*
X143638333Y-85502438D02*
X143733571Y-85454819D01*
X143733571Y-85454819D02*
X143924047Y-85454819D01*
X143924047Y-85454819D02*
X144019285Y-85502438D01*
X144019285Y-85502438D02*
X144114523Y-85597676D01*
X144114523Y-85597676D02*
X144162142Y-85788152D01*
X144162142Y-85788152D02*
X144162142Y-86121485D01*
X144162142Y-86121485D02*
X144114523Y-86311961D01*
X144114523Y-86311961D02*
X144019285Y-86407200D01*
X144019285Y-86407200D02*
X143924047Y-86454819D01*
X143924047Y-86454819D02*
X143733571Y-86454819D01*
X145114523Y-86454819D02*
X144543095Y-86454819D01*
X144828809Y-86454819D02*
X144828809Y-85454819D01*
X144828809Y-85454819D02*
X144733571Y-85597676D01*
X144733571Y-85597676D02*
X144638333Y-85692914D01*
X144638333Y-85692914D02*
X144543095Y-85740533D01*
X143666666Y-72954819D02*
X143666666Y-73669104D01*
X143666666Y-73669104D02*
X143619047Y-73811961D01*
X143619047Y-73811961D02*
X143523809Y-73907200D01*
X143523809Y-73907200D02*
X143380952Y-73954819D01*
X143380952Y-73954819D02*
X143285714Y-73954819D01*
X144666666Y-73954819D02*
X144095238Y-73954819D01*
X144380952Y-73954819D02*
X144380952Y-72954819D01*
X144380952Y-72954819D02*
X144285714Y-73097676D01*
X144285714Y-73097676D02*
X144190476Y-73192914D01*
X144190476Y-73192914D02*
X144095238Y-73240533D01*
X148231009Y-115535714D02*
X148278628Y-115392857D01*
X148278628Y-115392857D02*
X148326247Y-115345238D01*
X148326247Y-115345238D02*
X148421485Y-115297619D01*
X148421485Y-115297619D02*
X148564342Y-115297619D01*
X148564342Y-115297619D02*
X148659580Y-115345238D01*
X148659580Y-115345238D02*
X148707200Y-115392857D01*
X148707200Y-115392857D02*
X148754819Y-115488095D01*
X148754819Y-115488095D02*
X148754819Y-115869047D01*
X148754819Y-115869047D02*
X147754819Y-115869047D01*
X147754819Y-115869047D02*
X147754819Y-115535714D01*
X147754819Y-115535714D02*
X147802438Y-115440476D01*
X147802438Y-115440476D02*
X147850057Y-115392857D01*
X147850057Y-115392857D02*
X147945295Y-115345238D01*
X147945295Y-115345238D02*
X148040533Y-115345238D01*
X148040533Y-115345238D02*
X148135771Y-115392857D01*
X148135771Y-115392857D02*
X148183390Y-115440476D01*
X148183390Y-115440476D02*
X148231009Y-115535714D01*
X148231009Y-115535714D02*
X148231009Y-115869047D01*
X147754819Y-115011904D02*
X147754819Y-114440476D01*
X148754819Y-114726190D02*
X147754819Y-114726190D01*
X148754819Y-113583333D02*
X148754819Y-114154761D01*
X148754819Y-113869047D02*
X147754819Y-113869047D01*
X147754819Y-113869047D02*
X147897676Y-113964285D01*
X147897676Y-113964285D02*
X147992914Y-114059523D01*
X147992914Y-114059523D02*
X148040533Y-114154761D01*
X144114700Y-118071428D02*
X144114700Y-116928571D01*
X144686128Y-117499999D02*
X143543271Y-117499999D01*
X139454819Y-82206666D02*
X138978628Y-82539999D01*
X139454819Y-82778094D02*
X138454819Y-82778094D01*
X138454819Y-82778094D02*
X138454819Y-82397142D01*
X138454819Y-82397142D02*
X138502438Y-82301904D01*
X138502438Y-82301904D02*
X138550057Y-82254285D01*
X138550057Y-82254285D02*
X138645295Y-82206666D01*
X138645295Y-82206666D02*
X138788152Y-82206666D01*
X138788152Y-82206666D02*
X138883390Y-82254285D01*
X138883390Y-82254285D02*
X138931009Y-82301904D01*
X138931009Y-82301904D02*
X138978628Y-82397142D01*
X138978628Y-82397142D02*
X138978628Y-82778094D01*
X139454819Y-81254285D02*
X139454819Y-81825713D01*
X139454819Y-81539999D02*
X138454819Y-81539999D01*
X138454819Y-81539999D02*
X138597676Y-81635237D01*
X138597676Y-81635237D02*
X138692914Y-81730475D01*
X138692914Y-81730475D02*
X138740533Y-81825713D01*
X142853095Y-96034819D02*
X142853095Y-96844342D01*
X142853095Y-96844342D02*
X142900714Y-96939580D01*
X142900714Y-96939580D02*
X142948333Y-96987200D01*
X142948333Y-96987200D02*
X143043571Y-97034819D01*
X143043571Y-97034819D02*
X143234047Y-97034819D01*
X143234047Y-97034819D02*
X143329285Y-96987200D01*
X143329285Y-96987200D02*
X143376904Y-96939580D01*
X143376904Y-96939580D02*
X143424523Y-96844342D01*
X143424523Y-96844342D02*
X143424523Y-96034819D01*
X144424523Y-97034819D02*
X143853095Y-97034819D01*
X144138809Y-97034819D02*
X144138809Y-96034819D01*
X144138809Y-96034819D02*
X144043571Y-96177676D01*
X144043571Y-96177676D02*
X143948333Y-96272914D01*
X143948333Y-96272914D02*
X143853095Y-96320533D01*
D11*
%TO.C,R2*%
X152000000Y-101960000D02*
X152000000Y-102730000D01*
X153370000Y-102730000D02*
X150630000Y-102730000D01*
X150630000Y-102730000D02*
X150630000Y-109270000D01*
X153370000Y-109270000D02*
X153370000Y-102730000D01*
X150630000Y-109270000D02*
X153370000Y-109270000D01*
X152000000Y-110040000D02*
X152000000Y-109270000D01*
%TO.C,D1*%
X153236000Y-114170000D02*
X153080000Y-114170000D01*
X150920000Y-114170000D02*
X150764000Y-114170000D01*
X153078608Y-117402334D02*
G75*
G03*
X153235515Y-114170001I-1078608J1672334D01*
G01*
X153079836Y-116771129D02*
G75*
G03*
X153079999Y-114689040I-1079836J1041129D01*
G01*
X150920001Y-114689040D02*
G75*
G03*
X150920164Y-116771129I1079999J-1040960D01*
G01*
X150764485Y-114170001D02*
G75*
G03*
X150921392Y-117402334I1235515J-1559999D01*
G01*
%TO.C,Q1*%
X147975000Y-76690000D02*
X147705000Y-76690000D01*
X147705000Y-76690000D02*
X147705000Y-73860000D01*
X141345000Y-76690000D02*
X141345000Y-75590000D01*
X141075000Y-76690000D02*
X141345000Y-76690000D01*
X147975000Y-83110000D02*
X147975000Y-76690000D01*
X141075000Y-83110000D02*
X141075000Y-76690000D01*
%TO.C,J1*%
X147060000Y-72410000D02*
X147060000Y-64590000D01*
X147060000Y-70810000D02*
X146140000Y-70810000D01*
X147060000Y-64590000D02*
X140940000Y-64590000D01*
X146300000Y-68450000D02*
X146300000Y-66850000D01*
X146300000Y-66850000D02*
X145300000Y-66850000D01*
X146140000Y-72410000D02*
X147060000Y-72410000D01*
X146140000Y-70810000D02*
X146140000Y-72410000D01*
X145860000Y-70810000D02*
X146140000Y-70810000D01*
X145860000Y-70810000D02*
X145860000Y-72025000D01*
X145800000Y-66850000D02*
X145800000Y-64590000D01*
X145300000Y-68450000D02*
X146300000Y-68450000D01*
X145300000Y-66850000D02*
X145300000Y-68450000D01*
X145300000Y-66850000D02*
X145300000Y-64590000D01*
X144500000Y-68950000D02*
X143500000Y-68950000D01*
X144500000Y-64590000D02*
X144500000Y-68950000D01*
X143500000Y-68950000D02*
X143500000Y-64590000D01*
X142700000Y-68450000D02*
X141700000Y-68450000D01*
X142700000Y-66850000D02*
X142700000Y-68450000D01*
X141860000Y-72410000D02*
X141860000Y-70810000D01*
X141860000Y-70810000D02*
X142140000Y-70810000D01*
X141700000Y-68450000D02*
X141700000Y-66850000D01*
X141700000Y-66850000D02*
X142700000Y-66850000D01*
X140940000Y-72410000D02*
X141860000Y-72410000D01*
X140940000Y-70810000D02*
X141860000Y-70810000D01*
X140940000Y-64590000D02*
X140940000Y-72410000D01*
%TO.C,BT1*%
X147000000Y-112550000D02*
X147000000Y-118250000D01*
X141000000Y-112550000D02*
X147000000Y-112550000D01*
X141000000Y-112550000D02*
X141000000Y-118250000D01*
X140500000Y-119000000D02*
G75*
G03*
X141000000Y-118250000I-312500J750000D01*
G01*
X147000000Y-118250000D02*
G75*
G03*
X147500000Y-119000000I812500J0D01*
G01*
X144000000Y-141445670D02*
G75*
G03*
X147500000Y-119000001I11J11495714D01*
G01*
X140500000Y-119000000D02*
G75*
G03*
X144000000Y-141445671I3499989J-10949956D01*
G01*
%TO.C,R1*%
X139000000Y-78000000D02*
X139000000Y-78770000D01*
X140370000Y-78770000D02*
X137630000Y-78770000D01*
X137630000Y-78770000D02*
X137630000Y-85310000D01*
X140370000Y-85310000D02*
X140370000Y-78770000D01*
X137630000Y-85310000D02*
X140370000Y-85310000D01*
X139000000Y-86080000D02*
X139000000Y-85310000D01*
%TO.C,U1*%
X150080000Y-99410000D02*
X150080000Y-63730000D01*
X150080000Y-63730000D02*
X137160000Y-63730000D01*
X144620000Y-99410000D02*
X150080000Y-99410000D01*
X137160000Y-99410000D02*
X142620000Y-99410000D01*
X137160000Y-63730000D02*
X137160000Y-99410000D01*
X144620000Y-99410000D02*
G75*
G03*
X142620000Y-99410000I-1000000J0D01*
G01*
%TD*%
M02*
