%TF.GenerationSoftware,KiCad,Pcbnew,7.0.8*%
%TF.CreationDate,2023-10-22T16:51:36+09:00*%
%TF.ProjectId,radicon-client,72616469-636f-46e2-9d63-6c69656e742e,rev?*%
%TF.SameCoordinates,Original*%
%TF.FileFunction,Copper,L1,Top*%
%TF.FilePolarity,Positive*%
%FSLAX46Y46*%
G04 Gerber Fmt 4.6, Leading zero omitted, Abs format (unit mm)*
G04 Created by KiCad (PCBNEW 7.0.8) date 2023-10-22 16:51:36*
%MOMM*%
%LPD*%
G01*
G04 APERTURE LIST*
G04 Aperture macros list*
%AMRoundRect*
0 Rectangle with rounded corners*
0 $1 Rounding radius*
0 $2 $3 $4 $5 $6 $7 $8 $9 X,Y pos of 4 corners*
0 Add a 4 corners polygon primitive as box body*
4,1,4,$2,$3,$4,$5,$6,$7,$8,$9,$2,$3,0*
0 Add four circle primitives for the rounded corners*
1,1,$1+$1,$2,$3*
1,1,$1+$1,$4,$5*
1,1,$1+$1,$6,$7*
1,1,$1+$1,$8,$9*
0 Add four rect primitives between the rounded corners*
20,1,$1+$1,$2,$3,$4,$5,0*
20,1,$1+$1,$4,$5,$6,$7,0*
20,1,$1+$1,$6,$7,$8,$9,0*
20,1,$1+$1,$8,$9,$2,$3,0*%
%AMFreePoly0*
4,1,6,0.500000,-0.750000,-0.650000,-0.750000,-0.150000,0.000000,-0.650000,0.750000,0.500000,0.750000,0.500000,-0.750000,0.500000,-0.750000,$1*%
%AMFreePoly1*
4,1,6,1.000000,0.000000,0.500000,-0.750000,-0.500000,-0.750000,-0.500000,0.750000,0.500000,0.750000,1.000000,0.000000,1.000000,0.000000,$1*%
G04 Aperture macros list end*
%TA.AperFunction,SMDPad,CuDef*%
%ADD10FreePoly0,270.000000*%
%TD*%
%TA.AperFunction,SMDPad,CuDef*%
%ADD11FreePoly1,270.000000*%
%TD*%
%TA.AperFunction,ComponentPad*%
%ADD12C,1.600000*%
%TD*%
%TA.AperFunction,ComponentPad*%
%ADD13O,1.600000X1.600000*%
%TD*%
%TA.AperFunction,ComponentPad*%
%ADD14R,1.800000X1.800000*%
%TD*%
%TA.AperFunction,ComponentPad*%
%ADD15C,1.800000*%
%TD*%
%TA.AperFunction,SMDPad,CuDef*%
%ADD16RoundRect,0.250000X0.350000X-0.850000X0.350000X0.850000X-0.350000X0.850000X-0.350000X-0.850000X0*%
%TD*%
%TA.AperFunction,SMDPad,CuDef*%
%ADD17RoundRect,0.250000X1.125000X-1.275000X1.125000X1.275000X-1.125000X1.275000X-1.125000X-1.275000X0*%
%TD*%
%TA.AperFunction,SMDPad,CuDef*%
%ADD18RoundRect,0.249997X2.650003X-2.950003X2.650003X2.950003X-2.650003X2.950003X-2.650003X-2.950003X0*%
%TD*%
%TA.AperFunction,ComponentPad*%
%ADD19RoundRect,0.250000X-0.350000X-0.625000X0.350000X-0.625000X0.350000X0.625000X-0.350000X0.625000X0*%
%TD*%
%TA.AperFunction,ComponentPad*%
%ADD20O,1.200000X1.750000*%
%TD*%
%TA.AperFunction,ComponentPad*%
%ADD21R,3.000000X3.000000*%
%TD*%
%TA.AperFunction,ComponentPad*%
%ADD22C,3.000000*%
%TD*%
%TA.AperFunction,ComponentPad*%
%ADD23R,1.600000X1.600000*%
%TD*%
%TA.AperFunction,ViaPad*%
%ADD24C,0.800000*%
%TD*%
%TA.AperFunction,Conductor*%
%ADD25C,1.000000*%
%TD*%
%TA.AperFunction,Conductor*%
%ADD26C,0.250000*%
%TD*%
G04 APERTURE END LIST*
D10*
%TO.P,SW3,2*%
%TO.N,Net-(U1-DIO3{slash}M3)*%
X140400000Y-92650000D03*
D11*
%TO.P,SW3,1*%
%TO.N,GND*%
X140400000Y-91200000D03*
%TD*%
D10*
%TO.P,SW2,2*%
%TO.N,Net-(U1-DIO2{slash}M2)*%
X143400000Y-92650000D03*
D11*
%TO.P,SW2,1*%
%TO.N,GND*%
X143400000Y-91200000D03*
%TD*%
D10*
%TO.P,SW1,2*%
%TO.N,Net-(U1-DIO10{slash}M1)*%
X146300000Y-92650000D03*
D11*
%TO.P,SW1,1*%
%TO.N,GND*%
X146300000Y-91200000D03*
%TD*%
D12*
%TO.P,R2,1*%
%TO.N,GND*%
X152000000Y-100920000D03*
D13*
%TO.P,R2,2*%
%TO.N,Net-(D1-K)*%
X152000000Y-111080000D03*
%TD*%
D14*
%TO.P,D1,1,K*%
%TO.N,Net-(D1-K)*%
X152000000Y-114460000D03*
D15*
%TO.P,D1,2,A*%
%TO.N,+3V0*%
X152000000Y-117000000D03*
%TD*%
D16*
%TO.P,Q1,3,S*%
%TO.N,GND*%
X147800000Y-82200000D03*
D17*
%TO.P,Q1,2,G*%
%TO.N,Net-(Q1-G)*%
X147045000Y-74225000D03*
X143995000Y-74225000D03*
D18*
X145520000Y-75900000D03*
D17*
X147045000Y-77575000D03*
X143995000Y-77575000D03*
D16*
%TO.P,Q1,1,D*%
%TO.N,Net-(J1-Pin_1)*%
X143240000Y-82200000D03*
%TD*%
D19*
%TO.P,J1,1,Pin_1*%
%TO.N,Net-(J1-Pin_1)*%
X143000000Y-69450000D03*
D20*
%TO.P,J1,2,Pin_2*%
%TO.N,GND*%
X145000000Y-69450000D03*
%TD*%
D21*
%TO.P,BT1,1,+*%
%TO.N,+3V0*%
X144000000Y-116000000D03*
D22*
%TO.P,BT1,2,-*%
%TO.N,GND*%
X144000000Y-136490000D03*
%TD*%
D12*
%TO.P,R1,1*%
%TO.N,GND*%
X139700000Y-73220000D03*
D13*
%TO.P,R1,2*%
%TO.N,Net-(Q1-G)*%
X139700000Y-83380000D03*
%TD*%
D23*
%TO.P,U1,1,GND*%
%TO.N,GND*%
X151240000Y-98080000D03*
D13*
%TO.P,U1,2,DIO14/SCL*%
%TO.N,unconnected-(U1-DIO14{slash}SCL-Pad2)*%
X151240000Y-95540000D03*
%TO.P,U1,3,DIO7/RX*%
%TO.N,unconnected-(U1-DIO7{slash}RX-Pad3)*%
X151240000Y-93000000D03*
%TO.P,U1,4,DIO5/PWM1*%
%TO.N,Net-(Q1-G)*%
X151240000Y-90460000D03*
%TO.P,U1,5,DIO18/DO1*%
%TO.N,unconnected-(U1-DIO18{slash}DO1-Pad5)*%
X151240000Y-87920000D03*
%TO.P,U1,6,DO0/PWM2*%
%TO.N,unconnected-(U1-DO0{slash}PWM2-Pad6)*%
X151240000Y-85380000D03*
%TO.P,U1,7,DO1/PWM3*%
%TO.N,unconnected-(U1-DO1{slash}PWM3-Pad7)*%
X151240000Y-82840000D03*
%TO.P,U1,8,DIO19/DO2*%
%TO.N,unconnected-(U1-DIO19{slash}DO2-Pad8)*%
X151240000Y-80300000D03*
%TO.P,U1,9,DIO4/DO3*%
%TO.N,unconnected-(U1-DIO4{slash}DO3-Pad9)*%
X151240000Y-77760000D03*
%TO.P,U1,10,DIO6/TX*%
%TO.N,unconnected-(U1-DIO6{slash}TX-Pad10)*%
X151240000Y-75220000D03*
%TO.P,U1,11,DIO8/PWM4*%
%TO.N,unconnected-(U1-DIO8{slash}PWM4-Pad11)*%
X151240000Y-72680000D03*
%TO.P,U1,12,DIO9/DO4*%
%TO.N,unconnected-(U1-DIO9{slash}DO4-Pad12)*%
X151240000Y-70140000D03*
%TO.P,U1,13,DIO10/M1*%
%TO.N,Net-(U1-DIO10{slash}M1)*%
X151240000Y-67600000D03*
%TO.P,U1,14,GND*%
%TO.N,GND*%
X151240000Y-65060000D03*
%TO.P,U1,15,DIO12/DI1*%
%TO.N,unconnected-(U1-DIO12{slash}DI1-Pad15)*%
X136000000Y-65060000D03*
%TO.P,U1,16,DIO13/DI2*%
%TO.N,unconnected-(U1-DIO13{slash}DI2-Pad16)*%
X136000000Y-67600000D03*
%TO.P,U1,17,DIO11/DI3*%
%TO.N,unconnected-(U1-DIO11{slash}DI3-Pad17)*%
X136000000Y-70140000D03*
%TO.P,U1,18,DIO16/DI4*%
%TO.N,unconnected-(U1-DIO16{slash}DI4-Pad18)*%
X136000000Y-72680000D03*
%TO.P,U1,19,DIO15/SDA*%
%TO.N,unconnected-(U1-DIO15{slash}SDA-Pad19)*%
X136000000Y-75220000D03*
%TO.P,U1,20,DIO17/BPS*%
%TO.N,unconnected-(U1-DIO17{slash}BPS-Pad20)*%
X136000000Y-77760000D03*
%TO.P,U1,21,~{RESET}*%
%TO.N,unconnected-(U1-~{RESET}-Pad21)*%
X136000000Y-80300000D03*
%TO.P,U1,22,ADC1/AI1*%
%TO.N,unconnected-(U1-ADC1{slash}AI1-Pad22)*%
X136000000Y-82840000D03*
%TO.P,U1,23,DIO0/AI2*%
%TO.N,unconnected-(U1-DIO0{slash}AI2-Pad23)*%
X136000000Y-85380000D03*
%TO.P,U1,24,ADC2/AI3*%
%TO.N,unconnected-(U1-ADC2{slash}AI3-Pad24)*%
X136000000Y-87920000D03*
%TO.P,U1,25,DIO1/AI4*%
%TO.N,unconnected-(U1-DIO1{slash}AI4-Pad25)*%
X136000000Y-90460000D03*
%TO.P,U1,26,DIO2/M2*%
%TO.N,Net-(U1-DIO2{slash}M2)*%
X136000000Y-93000000D03*
%TO.P,U1,27,DIO3/M3*%
%TO.N,Net-(U1-DIO3{slash}M3)*%
X136000000Y-95540000D03*
%TO.P,U1,28,VCC*%
%TO.N,+3V0*%
X136000000Y-98080000D03*
%TD*%
D24*
%TO.N,Net-(U1-DIO10{slash}M1)*%
X146400000Y-95800000D03*
%TO.N,Net-(U1-DIO2{slash}M2)*%
X143300000Y-95500000D03*
%TO.N,Net-(J1-Pin_1)*%
X145600000Y-80900000D03*
%TD*%
D25*
%TO.N,GND*%
X146300000Y-91200000D02*
X148100000Y-91200000D01*
X148100000Y-91200000D02*
X148400000Y-90900000D01*
X143400000Y-91200000D02*
X146300000Y-91200000D01*
X140400000Y-91200000D02*
X143400000Y-91200000D01*
D26*
%TO.N,Net-(U1-DIO10{slash}M1)*%
X146300000Y-95700000D02*
X146400000Y-95800000D01*
X146300000Y-92650000D02*
X146300000Y-95700000D01*
%TO.N,Net-(U1-DIO2{slash}M2)*%
X143400000Y-95400000D02*
X143300000Y-95500000D01*
X143400000Y-92650000D02*
X143400000Y-95400000D01*
%TO.N,Net-(U1-DIO3{slash}M3)*%
X140400000Y-92650000D02*
X140400000Y-94800000D01*
X140400000Y-94800000D02*
X139660000Y-95540000D01*
X139660000Y-95540000D02*
X136000000Y-95540000D01*
D25*
%TO.N,Net-(D1-K)*%
X152000000Y-111080000D02*
X152000000Y-114460000D01*
D26*
%TO.N,Net-(Q1-G)*%
X139700000Y-83380000D02*
X139700000Y-82253100D01*
X143995000Y-77958100D02*
X143995000Y-77575000D01*
X139700000Y-82253100D02*
X143995000Y-77958100D01*
X147045000Y-77575000D02*
X145520000Y-76050000D01*
X143995000Y-77575000D02*
X145520000Y-76050000D01*
X145520000Y-76050000D02*
X145520000Y-75900000D01*
X145520000Y-75900000D02*
X145520000Y-75137500D01*
X146132500Y-75137500D02*
X145520000Y-75137500D01*
X147045000Y-74225000D02*
X146132500Y-75137500D01*
X144907500Y-75137500D02*
X143995000Y-74225000D01*
X145520000Y-75137500D02*
X144907500Y-75137500D01*
D25*
%TO.N,Net-(J1-Pin_1)*%
X144300000Y-82200000D02*
X145600000Y-80900000D01*
X143240000Y-82200000D02*
X144300000Y-82200000D01*
%TO.N,+3V0*%
X136000000Y-108000000D02*
X136000000Y-98080000D01*
X144000000Y-116000000D02*
X136000000Y-108000000D01*
X145000000Y-117000000D02*
X152000000Y-117000000D01*
X144000000Y-116000000D02*
X145000000Y-117000000D01*
%TO.N,GND*%
X148400000Y-82800000D02*
X148400000Y-90900000D01*
X147800000Y-82200000D02*
X148400000Y-82800000D01*
X148400000Y-95240000D02*
X151240000Y-98080000D01*
X148400000Y-90900000D02*
X148400000Y-95240000D01*
%TD*%
M02*
