%TF.GenerationSoftware,KiCad,Pcbnew,7.0.8*%
%TF.CreationDate,2023-10-22T16:51:36+09:00*%
%TF.ProjectId,radicon-client,72616469-636f-46e2-9d63-6c69656e742e,rev?*%
%TF.SameCoordinates,Original*%
%TF.FileFunction,Legend,Top*%
%TF.FilePolarity,Positive*%
%FSLAX46Y46*%
G04 Gerber Fmt 4.6, Leading zero omitted, Abs format (unit mm)*
G04 Created by KiCad (PCBNEW 7.0.8) date 2023-10-22 16:51:36*
%MOMM*%
%LPD*%
G01*
G04 APERTURE LIST*
%ADD10C,0.150000*%
%ADD11C,0.120000*%
G04 APERTURE END LIST*
D10*
X139066667Y-89857200D02*
X139209524Y-89904819D01*
X139209524Y-89904819D02*
X139447619Y-89904819D01*
X139447619Y-89904819D02*
X139542857Y-89857200D01*
X139542857Y-89857200D02*
X139590476Y-89809580D01*
X139590476Y-89809580D02*
X139638095Y-89714342D01*
X139638095Y-89714342D02*
X139638095Y-89619104D01*
X139638095Y-89619104D02*
X139590476Y-89523866D01*
X139590476Y-89523866D02*
X139542857Y-89476247D01*
X139542857Y-89476247D02*
X139447619Y-89428628D01*
X139447619Y-89428628D02*
X139257143Y-89381009D01*
X139257143Y-89381009D02*
X139161905Y-89333390D01*
X139161905Y-89333390D02*
X139114286Y-89285771D01*
X139114286Y-89285771D02*
X139066667Y-89190533D01*
X139066667Y-89190533D02*
X139066667Y-89095295D01*
X139066667Y-89095295D02*
X139114286Y-89000057D01*
X139114286Y-89000057D02*
X139161905Y-88952438D01*
X139161905Y-88952438D02*
X139257143Y-88904819D01*
X139257143Y-88904819D02*
X139495238Y-88904819D01*
X139495238Y-88904819D02*
X139638095Y-88952438D01*
X139971429Y-88904819D02*
X140209524Y-89904819D01*
X140209524Y-89904819D02*
X140400000Y-89190533D01*
X140400000Y-89190533D02*
X140590476Y-89904819D01*
X140590476Y-89904819D02*
X140828572Y-88904819D01*
X141114286Y-88904819D02*
X141733333Y-88904819D01*
X141733333Y-88904819D02*
X141400000Y-89285771D01*
X141400000Y-89285771D02*
X141542857Y-89285771D01*
X141542857Y-89285771D02*
X141638095Y-89333390D01*
X141638095Y-89333390D02*
X141685714Y-89381009D01*
X141685714Y-89381009D02*
X141733333Y-89476247D01*
X141733333Y-89476247D02*
X141733333Y-89714342D01*
X141733333Y-89714342D02*
X141685714Y-89809580D01*
X141685714Y-89809580D02*
X141638095Y-89857200D01*
X141638095Y-89857200D02*
X141542857Y-89904819D01*
X141542857Y-89904819D02*
X141257143Y-89904819D01*
X141257143Y-89904819D02*
X141161905Y-89857200D01*
X141161905Y-89857200D02*
X141114286Y-89809580D01*
X142066667Y-89857200D02*
X142209524Y-89904819D01*
X142209524Y-89904819D02*
X142447619Y-89904819D01*
X142447619Y-89904819D02*
X142542857Y-89857200D01*
X142542857Y-89857200D02*
X142590476Y-89809580D01*
X142590476Y-89809580D02*
X142638095Y-89714342D01*
X142638095Y-89714342D02*
X142638095Y-89619104D01*
X142638095Y-89619104D02*
X142590476Y-89523866D01*
X142590476Y-89523866D02*
X142542857Y-89476247D01*
X142542857Y-89476247D02*
X142447619Y-89428628D01*
X142447619Y-89428628D02*
X142257143Y-89381009D01*
X142257143Y-89381009D02*
X142161905Y-89333390D01*
X142161905Y-89333390D02*
X142114286Y-89285771D01*
X142114286Y-89285771D02*
X142066667Y-89190533D01*
X142066667Y-89190533D02*
X142066667Y-89095295D01*
X142066667Y-89095295D02*
X142114286Y-89000057D01*
X142114286Y-89000057D02*
X142161905Y-88952438D01*
X142161905Y-88952438D02*
X142257143Y-88904819D01*
X142257143Y-88904819D02*
X142495238Y-88904819D01*
X142495238Y-88904819D02*
X142638095Y-88952438D01*
X142971429Y-88904819D02*
X143209524Y-89904819D01*
X143209524Y-89904819D02*
X143400000Y-89190533D01*
X143400000Y-89190533D02*
X143590476Y-89904819D01*
X143590476Y-89904819D02*
X143828572Y-88904819D01*
X144161905Y-89000057D02*
X144209524Y-88952438D01*
X144209524Y-88952438D02*
X144304762Y-88904819D01*
X144304762Y-88904819D02*
X144542857Y-88904819D01*
X144542857Y-88904819D02*
X144638095Y-88952438D01*
X144638095Y-88952438D02*
X144685714Y-89000057D01*
X144685714Y-89000057D02*
X144733333Y-89095295D01*
X144733333Y-89095295D02*
X144733333Y-89190533D01*
X144733333Y-89190533D02*
X144685714Y-89333390D01*
X144685714Y-89333390D02*
X144114286Y-89904819D01*
X144114286Y-89904819D02*
X144733333Y-89904819D01*
X144966667Y-89857200D02*
X145109524Y-89904819D01*
X145109524Y-89904819D02*
X145347619Y-89904819D01*
X145347619Y-89904819D02*
X145442857Y-89857200D01*
X145442857Y-89857200D02*
X145490476Y-89809580D01*
X145490476Y-89809580D02*
X145538095Y-89714342D01*
X145538095Y-89714342D02*
X145538095Y-89619104D01*
X145538095Y-89619104D02*
X145490476Y-89523866D01*
X145490476Y-89523866D02*
X145442857Y-89476247D01*
X145442857Y-89476247D02*
X145347619Y-89428628D01*
X145347619Y-89428628D02*
X145157143Y-89381009D01*
X145157143Y-89381009D02*
X145061905Y-89333390D01*
X145061905Y-89333390D02*
X145014286Y-89285771D01*
X145014286Y-89285771D02*
X144966667Y-89190533D01*
X144966667Y-89190533D02*
X144966667Y-89095295D01*
X144966667Y-89095295D02*
X145014286Y-89000057D01*
X145014286Y-89000057D02*
X145061905Y-88952438D01*
X145061905Y-88952438D02*
X145157143Y-88904819D01*
X145157143Y-88904819D02*
X145395238Y-88904819D01*
X145395238Y-88904819D02*
X145538095Y-88952438D01*
X145871429Y-88904819D02*
X146109524Y-89904819D01*
X146109524Y-89904819D02*
X146300000Y-89190533D01*
X146300000Y-89190533D02*
X146490476Y-89904819D01*
X146490476Y-89904819D02*
X146728572Y-88904819D01*
X147633333Y-89904819D02*
X147061905Y-89904819D01*
X147347619Y-89904819D02*
X147347619Y-88904819D01*
X147347619Y-88904819D02*
X147252381Y-89047676D01*
X147252381Y-89047676D02*
X147157143Y-89142914D01*
X147157143Y-89142914D02*
X147061905Y-89190533D01*
X154824819Y-106166666D02*
X154348628Y-106499999D01*
X154824819Y-106738094D02*
X153824819Y-106738094D01*
X153824819Y-106738094D02*
X153824819Y-106357142D01*
X153824819Y-106357142D02*
X153872438Y-106261904D01*
X153872438Y-106261904D02*
X153920057Y-106214285D01*
X153920057Y-106214285D02*
X154015295Y-106166666D01*
X154015295Y-106166666D02*
X154158152Y-106166666D01*
X154158152Y-106166666D02*
X154253390Y-106214285D01*
X154253390Y-106214285D02*
X154301009Y-106261904D01*
X154301009Y-106261904D02*
X154348628Y-106357142D01*
X154348628Y-106357142D02*
X154348628Y-106738094D01*
X153920057Y-105785713D02*
X153872438Y-105738094D01*
X153872438Y-105738094D02*
X153824819Y-105642856D01*
X153824819Y-105642856D02*
X153824819Y-105404761D01*
X153824819Y-105404761D02*
X153872438Y-105309523D01*
X153872438Y-105309523D02*
X153920057Y-105261904D01*
X153920057Y-105261904D02*
X154015295Y-105214285D01*
X154015295Y-105214285D02*
X154110533Y-105214285D01*
X154110533Y-105214285D02*
X154253390Y-105261904D01*
X154253390Y-105261904D02*
X154824819Y-105833332D01*
X154824819Y-105833332D02*
X154824819Y-105214285D01*
X155414819Y-116468094D02*
X154414819Y-116468094D01*
X154414819Y-116468094D02*
X154414819Y-116229999D01*
X154414819Y-116229999D02*
X154462438Y-116087142D01*
X154462438Y-116087142D02*
X154557676Y-115991904D01*
X154557676Y-115991904D02*
X154652914Y-115944285D01*
X154652914Y-115944285D02*
X154843390Y-115896666D01*
X154843390Y-115896666D02*
X154986247Y-115896666D01*
X154986247Y-115896666D02*
X155176723Y-115944285D01*
X155176723Y-115944285D02*
X155271961Y-115991904D01*
X155271961Y-115991904D02*
X155367200Y-116087142D01*
X155367200Y-116087142D02*
X155414819Y-116229999D01*
X155414819Y-116229999D02*
X155414819Y-116468094D01*
X155414819Y-114944285D02*
X155414819Y-115515713D01*
X155414819Y-115229999D02*
X154414819Y-115229999D01*
X154414819Y-115229999D02*
X154557676Y-115325237D01*
X154557676Y-115325237D02*
X154652914Y-115420475D01*
X154652914Y-115420475D02*
X154700533Y-115515713D01*
X145644761Y-71710057D02*
X145549523Y-71662438D01*
X145549523Y-71662438D02*
X145454285Y-71567200D01*
X145454285Y-71567200D02*
X145311428Y-71424342D01*
X145311428Y-71424342D02*
X145216190Y-71376723D01*
X145216190Y-71376723D02*
X145120952Y-71376723D01*
X145168571Y-71614819D02*
X145073333Y-71567200D01*
X145073333Y-71567200D02*
X144978095Y-71471961D01*
X144978095Y-71471961D02*
X144930476Y-71281485D01*
X144930476Y-71281485D02*
X144930476Y-70948152D01*
X144930476Y-70948152D02*
X144978095Y-70757676D01*
X144978095Y-70757676D02*
X145073333Y-70662438D01*
X145073333Y-70662438D02*
X145168571Y-70614819D01*
X145168571Y-70614819D02*
X145359047Y-70614819D01*
X145359047Y-70614819D02*
X145454285Y-70662438D01*
X145454285Y-70662438D02*
X145549523Y-70757676D01*
X145549523Y-70757676D02*
X145597142Y-70948152D01*
X145597142Y-70948152D02*
X145597142Y-71281485D01*
X145597142Y-71281485D02*
X145549523Y-71471961D01*
X145549523Y-71471961D02*
X145454285Y-71567200D01*
X145454285Y-71567200D02*
X145359047Y-71614819D01*
X145359047Y-71614819D02*
X145168571Y-71614819D01*
X146549523Y-71614819D02*
X145978095Y-71614819D01*
X146263809Y-71614819D02*
X146263809Y-70614819D01*
X146263809Y-70614819D02*
X146168571Y-70757676D01*
X146168571Y-70757676D02*
X146073333Y-70852914D01*
X146073333Y-70852914D02*
X145978095Y-70900533D01*
X148231009Y-116785714D02*
X148278628Y-116642857D01*
X148278628Y-116642857D02*
X148326247Y-116595238D01*
X148326247Y-116595238D02*
X148421485Y-116547619D01*
X148421485Y-116547619D02*
X148564342Y-116547619D01*
X148564342Y-116547619D02*
X148659580Y-116595238D01*
X148659580Y-116595238D02*
X148707200Y-116642857D01*
X148707200Y-116642857D02*
X148754819Y-116738095D01*
X148754819Y-116738095D02*
X148754819Y-117119047D01*
X148754819Y-117119047D02*
X147754819Y-117119047D01*
X147754819Y-117119047D02*
X147754819Y-116785714D01*
X147754819Y-116785714D02*
X147802438Y-116690476D01*
X147802438Y-116690476D02*
X147850057Y-116642857D01*
X147850057Y-116642857D02*
X147945295Y-116595238D01*
X147945295Y-116595238D02*
X148040533Y-116595238D01*
X148040533Y-116595238D02*
X148135771Y-116642857D01*
X148135771Y-116642857D02*
X148183390Y-116690476D01*
X148183390Y-116690476D02*
X148231009Y-116785714D01*
X148231009Y-116785714D02*
X148231009Y-117119047D01*
X147754819Y-116261904D02*
X147754819Y-115690476D01*
X148754819Y-115976190D02*
X147754819Y-115976190D01*
X148754819Y-114833333D02*
X148754819Y-115404761D01*
X148754819Y-115119047D02*
X147754819Y-115119047D01*
X147754819Y-115119047D02*
X147897676Y-115214285D01*
X147897676Y-115214285D02*
X147992914Y-115309523D01*
X147992914Y-115309523D02*
X148040533Y-115404761D01*
X144114700Y-119321428D02*
X144114700Y-118178571D01*
X144686128Y-118749999D02*
X143543271Y-118749999D01*
X140154819Y-78466666D02*
X139678628Y-78799999D01*
X140154819Y-79038094D02*
X139154819Y-79038094D01*
X139154819Y-79038094D02*
X139154819Y-78657142D01*
X139154819Y-78657142D02*
X139202438Y-78561904D01*
X139202438Y-78561904D02*
X139250057Y-78514285D01*
X139250057Y-78514285D02*
X139345295Y-78466666D01*
X139345295Y-78466666D02*
X139488152Y-78466666D01*
X139488152Y-78466666D02*
X139583390Y-78514285D01*
X139583390Y-78514285D02*
X139631009Y-78561904D01*
X139631009Y-78561904D02*
X139678628Y-78657142D01*
X139678628Y-78657142D02*
X139678628Y-79038094D01*
X140154819Y-77514285D02*
X140154819Y-78085713D01*
X140154819Y-77799999D02*
X139154819Y-77799999D01*
X139154819Y-77799999D02*
X139297676Y-77895237D01*
X139297676Y-77895237D02*
X139392914Y-77990475D01*
X139392914Y-77990475D02*
X139440533Y-78085713D01*
X142853095Y-96034819D02*
X142853095Y-96844342D01*
X142853095Y-96844342D02*
X142900714Y-96939580D01*
X142900714Y-96939580D02*
X142948333Y-96987200D01*
X142948333Y-96987200D02*
X143043571Y-97034819D01*
X143043571Y-97034819D02*
X143234047Y-97034819D01*
X143234047Y-97034819D02*
X143329285Y-96987200D01*
X143329285Y-96987200D02*
X143376904Y-96939580D01*
X143376904Y-96939580D02*
X143424523Y-96844342D01*
X143424523Y-96844342D02*
X143424523Y-96034819D01*
X144424523Y-97034819D02*
X143853095Y-97034819D01*
X144138809Y-97034819D02*
X144138809Y-96034819D01*
X144138809Y-96034819D02*
X144043571Y-96177676D01*
X144043571Y-96177676D02*
X143948333Y-96272914D01*
X143948333Y-96272914D02*
X143853095Y-96320533D01*
D11*
%TO.C,SW3*%
X141400000Y-90525000D02*
X141400000Y-93325000D01*
X141400000Y-93325000D02*
X139400000Y-93325000D01*
X139400000Y-93325000D02*
X139400000Y-90525000D01*
X139400000Y-90525000D02*
X141400000Y-90525000D01*
%TO.C,SW2*%
X144400000Y-90525000D02*
X144400000Y-93325000D01*
X144400000Y-93325000D02*
X142400000Y-93325000D01*
X142400000Y-93325000D02*
X142400000Y-90525000D01*
X142400000Y-90525000D02*
X144400000Y-90525000D01*
%TO.C,SW1*%
X147300000Y-90525000D02*
X147300000Y-93325000D01*
X147300000Y-93325000D02*
X145300000Y-93325000D01*
X145300000Y-93325000D02*
X145300000Y-90525000D01*
X145300000Y-90525000D02*
X147300000Y-90525000D01*
%TO.C,R2*%
X152000000Y-101960000D02*
X152000000Y-102730000D01*
X153370000Y-102730000D02*
X150630000Y-102730000D01*
X150630000Y-102730000D02*
X150630000Y-109270000D01*
X153370000Y-109270000D02*
X153370000Y-102730000D01*
X150630000Y-109270000D02*
X153370000Y-109270000D01*
X152000000Y-110040000D02*
X152000000Y-109270000D01*
%TO.C,D1*%
X153236000Y-114170000D02*
X153080000Y-114170000D01*
X150920000Y-114170000D02*
X150764000Y-114170000D01*
X153078608Y-117402334D02*
G75*
G03*
X153235515Y-114170001I-1078608J1672334D01*
G01*
X153079836Y-116771129D02*
G75*
G03*
X153079999Y-114689040I-1079836J1041129D01*
G01*
X150920001Y-114689040D02*
G75*
G03*
X150920164Y-116771129I1079999J-1040960D01*
G01*
X150764485Y-114170001D02*
G75*
G03*
X150921392Y-117402334I1235515J-1559999D01*
G01*
%TO.C,Q1*%
X148970000Y-74050000D02*
X148970000Y-80470000D01*
X142070000Y-74050000D02*
X142070000Y-80470000D01*
X148970000Y-80470000D02*
X148700000Y-80470000D01*
X148700000Y-80470000D02*
X148700000Y-81570000D01*
X142340000Y-80470000D02*
X142340000Y-83300000D01*
X142070000Y-80470000D02*
X142340000Y-80470000D01*
%TO.C,BT1*%
X147000000Y-113800000D02*
X147000000Y-119500000D01*
X141000000Y-113800000D02*
X147000000Y-113800000D01*
X141000000Y-113800000D02*
X141000000Y-119500000D01*
X140500000Y-120250000D02*
G75*
G03*
X141000000Y-119500000I-312500J750000D01*
G01*
X147000000Y-119500000D02*
G75*
G03*
X147500000Y-120250000I812500J0D01*
G01*
X144000000Y-142695670D02*
G75*
G03*
X147500000Y-120250001I11J11495714D01*
G01*
X140500000Y-120250000D02*
G75*
G03*
X144000000Y-142695671I3499989J-10949956D01*
G01*
%TO.C,R1*%
X139700000Y-74260000D02*
X139700000Y-75030000D01*
X141070000Y-75030000D02*
X138330000Y-75030000D01*
X138330000Y-75030000D02*
X138330000Y-81570000D01*
X141070000Y-81570000D02*
X141070000Y-75030000D01*
X138330000Y-81570000D02*
X141070000Y-81570000D01*
X139700000Y-82340000D02*
X139700000Y-81570000D01*
%TO.C,U1*%
X150080000Y-99410000D02*
X150080000Y-63730000D01*
X150080000Y-63730000D02*
X137160000Y-63730000D01*
X144620000Y-99410000D02*
X150080000Y-99410000D01*
X137160000Y-99410000D02*
X142620000Y-99410000D01*
X137160000Y-63730000D02*
X137160000Y-99410000D01*
X144620000Y-99410000D02*
G75*
G03*
X142620000Y-99410000I-1000000J0D01*
G01*
%TD*%
M02*
